<svg xmlns="http://www.w3.org/2000/svg" xmlns:xlink="http://www.w3.org/1999/xlink" viewBox="0 0 1000 1000"><defs><style>.cls-1{fill:url(#Gradient_bez_nazwy_7);}.cls-2{fill:url(#Gradient_bez_nazwy_7-2);}.cls-3{fill:url(#Gradient_bez_nazwy_7-3);}.cls-4{fill:url(#Gradient_bez_nazwy_7-4);}.cls-5{fill:url(#Gradient_bez_nazwy_7-5);}.cls-6{fill:url(#Gradient_bez_nazwy_7-6);}.cls-7{fill:url(#Gradient_bez_nazwy_7-7);}.cls-8{fill:url(#Gradient_bez_nazwy_7-8);}</style><linearGradient id="Gradient_bez_nazwy_7" x1="179.27" y1="179.27" x2="820.73" y2="820.73" gradientUnits="userSpaceOnUse"><stop offset="0" stop-color="#57d565"/><stop offset="1" stop-color="#7560ae"/></linearGradient><linearGradient id="Gradient_bez_nazwy_7-2" x1="315.03" y1="500" x2="684.97" y2="500" xlink:href="#Gradient_bez_nazwy_7"/><linearGradient id="Gradient_bez_nazwy_7-3" x1="488" y1="351.41" x2="512.32" y2="351.41" xlink:href="#Gradient_bez_nazwy_7"/><linearGradient id="Gradient_bez_nazwy_7-4" x1="438.77" y1="376.02" x2="463.11" y2="376.02" xlink:href="#Gradient_bez_nazwy_7"/><linearGradient id="Gradient_bez_nazwy_7-5" x1="537.2" y1="376.02" x2="561.58" y2="376.02" xlink:href="#Gradient_bez_nazwy_7"/><linearGradient id="Gradient_bez_nazwy_7-6" x1="389.53" y1="400.63" x2="413.89" y2="400.63" xlink:href="#Gradient_bez_nazwy_7"/><linearGradient id="Gradient_bez_nazwy_7-7" x1="487.96" y1="400.63" x2="512.36" y2="400.63" xlink:href="#Gradient_bez_nazwy_7"/><linearGradient id="Gradient_bez_nazwy_7-8" x1="586.45" y1="400.63" x2="610.77" y2="400.63" xlink:href="#Gradient_bez_nazwy_7"/></defs><g id="Warstwa_2" data-name="Warstwa 2"><path class="cls-1" d="M500,146.42a352.11,352.11,0,1,1-137.6,27.74A351.28,351.28,0,0,1,500,146.42m0-100C249.49,46.42,46.42,249.49,46.42,500S249.49,953.58,500,953.58,953.58,750.51,953.58,500,750.51,46.42,500,46.42Z"/><g id="mfml3e.tif"><path class="cls-2" d="M322.61,619.45c-9.9-13.56-10.09-29.75,1.89-46.41-11.53-16-12.29-32.44,0-49.2-11.64-16.11-12.25-32.55-.06-49.16-14.63-20-9.13-41.92-4.14-63,16.72-70.57,80.64-121.33,153.1-121.63C501,290,529,289.13,556,293.55c73.53,12.06,129.57,80.95,128.47,155.31-.13,8.56-4.1,17.07-6.88,27.88,9.87,13.69,10.5,30.13-1.74,46.84,11.74,16.18,12.16,32.62,0,49.26,11.8,16.24,12.15,32.68.16,49,24,29.39-2.9,87.63-51.9,88-56.87.42-113.74.11-170.6.11-24.88,0-49.76.06-74.64,0-34.33-.11-62-26.09-62.76-60.4C315.84,640.26,320,630.88,322.61,619.45Zm177.57-157.3q72.13,0,144.27,0c11,0,15.45-4.26,15.55-14.36.66-63.82-51.47-124.28-114.89-131.35-23-2.56-46.35-1.89-69.54-1.82-73.12.23-131.94,57-135.13,129.92-.59,13.52,3.36,17.62,17.11,17.62Q428.86,462.17,500.18,462.15Zm0,172.32q-72.17,0-144.32,0c-11.88,0-16.38,5.13-15.16,16.87,1.95,18.69,17.52,33.8,36.13,33.84q123.4.28,246.81,0c17.62,0,33-14.07,35.77-31.46,2.23-13.91-2.34-19.26-16.56-19.26Q571.47,634.45,500.14,634.47Zm-.35-73.87H642.4c2.46,0,5,.25,7.35-.26,6.37-1.38,10.14-5.46,10.13-12.06s-3.82-10.66-10.19-12a36.78,36.78,0,0,0-7.36-.24H357.93c-2.46,0-5-.25-7.36.26-6.36,1.37-10.14,5.45-10.12,12.05s3.83,10.65,10.19,12c2.36.51,4.9.25,7.35.25Zm17.31-49.22c.51-.75,1-1.5,1.55-2.24-7.31-6.87-14.52-13.85-22-20.51-1.41-1.26-3.95-1.75-6-1.76q-68.46-.14-136.93,0c-8.21,0-13.45,5.19-13.37,12.36s5.34,12,13.64,12.12c10.65.17,21.31,0,32,0Zm-36.64,98c3.56.27,4.57.42,5.57.42q80,0,159.89,0c8.82,0,14.19-5.06,14-12.54s-5.54-12-14.59-12q-67.23-.07-134.47.09a13.07,13.07,0,0,0-8,2.64C495.7,594.31,489,601.14,480.46,609.39Zm100-100.07c.37.68.74,1.37,1.12,2.05,21.5,0,43,.08,64.5,0,8.43,0,13.64-4.71,13.87-11.84.24-7.51-5.1-12.55-13.87-12.65-12.56-.15-25.13-.18-37.69.08a12,12,0,0,0-7.18,2.7C594.08,496,587.33,502.72,580.44,509.32ZM418.81,609.76l1-2c-6.88-6.63-13.69-13.33-20.7-19.81a9.4,9.4,0,0,0-5.59-2.61c-13.93-.2-27.88-.41-41.79.07-6.87.24-10.9,4.74-11.32,11.73a11.56,11.56,0,0,0,11.43,12.47C374.18,610,396.5,609.76,418.81,609.76Zm148-122.29h-34Q541.09,496,550,505.09ZM449.05,602.23l17.16-16.33h-33Z"/><path class="cls-3" d="M500.8,339.14a12.29,12.29,0,1,1-12.75,11.23A12.29,12.29,0,0,1,500.8,339.14Z"/><path class="cls-4" d="M451,363.75a12.28,12.28,0,1,1-12.18,11.85A12.3,12.3,0,0,1,451,363.75Z"/><path class="cls-5" d="M561.58,375.89a12.19,12.19,0,1,1-11.92-12.14A12.34,12.34,0,0,1,561.58,375.89Z"/><path class="cls-6" d="M413.89,400.29a12.18,12.18,0,1,1-12.11-11.93A12.33,12.33,0,0,1,413.89,400.29Z"/><path class="cls-7" d="M512.36,400.67a12.2,12.2,0,1,1-11.75-12.31A12.36,12.36,0,0,1,512.36,400.67Z"/><path class="cls-8" d="M598.24,388.36a12.28,12.28,0,1,1-11.76,13.06A12.26,12.26,0,0,1,598.24,388.36Z"/></g></g></svg>