<svg xmlns="http://www.w3.org/2000/svg" xmlns:xlink="http://www.w3.org/1999/xlink" viewBox="0 0 1000 1000"><defs><style>.cls-1{fill:url(#Gradient_bez_nazwy_7);}.cls-2{fill:url(#Gradient_bez_nazwy_7-2);}.cls-3{fill:url(#Gradient_bez_nazwy_7-3);}</style><linearGradient id="Gradient_bez_nazwy_7" x1="279.52" y1="531.61" x2="720.48" y2="531.61" gradientUnits="userSpaceOnUse"><stop offset="0" stop-color="#57d565"/><stop offset="1" stop-color="#7560ae"/></linearGradient><linearGradient id="Gradient_bez_nazwy_7-2" x1="416.97" y1="410.97" x2="584.94" y2="410.97" xlink:href="#Gradient_bez_nazwy_7"/><linearGradient id="Gradient_bez_nazwy_7-3" x1="179.27" y1="179.27" x2="820.73" y2="820.73" xlink:href="#Gradient_bez_nazwy_7"/></defs><g id="Warstwa_1" data-name="Warstwa 1"><path class="cls-1" d="M674.59,498.77V472.88H616.51v-30.3H584.94v30.3H417v-30.3H385.39v30.3h-60v24.95H279.52v96h45.89v26.83H674.59V594.75h45.89v-96ZM439.7,568.86H385.39v-44.2H439.7Zm34.1-42.78h59.35v42.78H473.8Zm93.45-1.42h52.41v44.2H567.25Zm-241.84,0H351.3v44.2H325.41Zm349.18,44.2H653.76v-44.2h20.83Z"/><polygon class="cls-2" points="448.54 411.48 553.37 411.48 553.37 442.57 584.94 442.57 584.94 411 553.37 411 553.37 379.36 448.54 379.36 448.54 411 416.97 411 416.97 442.57 448.54 442.57 448.54 411.48"/></g><g id="Warstwa_2" data-name="Warstwa 2"><path class="cls-3" d="M500,146.42a352.11,352.11,0,1,1-137.6,27.74A351.28,351.28,0,0,1,500,146.42m0-100C249.49,46.42,46.42,249.49,46.42,500S249.49,953.58,500,953.58,953.58,750.51,953.58,500,750.51,46.42,500,46.42Z"/></g></svg>