<svg xmlns="http://www.w3.org/2000/svg" xmlns:xlink="http://www.w3.org/1999/xlink" viewBox="0 0 1000 1000"><defs><style>.cls-1{fill:url(#Gradient_bez_nazwy_7);}.cls-2{fill:url(#Gradient_bez_nazwy_7-2);}.cls-3{fill:url(#Gradient_bez_nazwy_7-3);}.cls-4{fill:url(#Gradient_bez_nazwy_7-4);}</style><linearGradient id="Gradient_bez_nazwy_7" x1="255.72" y1="550.58" x2="482.77" y2="550.58" gradientUnits="userSpaceOnUse"><stop offset="0" stop-color="#57d565"/><stop offset="1" stop-color="#7560ae"/></linearGradient><linearGradient id="Gradient_bez_nazwy_7-2" x1="516.69" y1="549.68" x2="744.28" y2="549.68" xlink:href="#Gradient_bez_nazwy_7"/><linearGradient id="Gradient_bez_nazwy_7-3" x1="376.75" y1="358.1" x2="623.1" y2="358.1" xlink:href="#Gradient_bez_nazwy_7"/><linearGradient id="Gradient_bez_nazwy_7-4" x1="179.27" y1="179.27" x2="820.73" y2="820.73" xlink:href="#Gradient_bez_nazwy_7"/></defs><g id="Warstwa_1" data-name="Warstwa 1"><path class="cls-1" d="M474.76,504.53c-37.18-20.16-74.17-40.68-111.23-61-2.1-1.16-4.4-2-7.66-3.38,0,33,.07,64.78,0,96.58-.05,11.08,3,24.28-1.88,32.65s-18,12.09-27.6,17.66c-10.18,5.9-20.5,11.59-32.29,18.24,2.17-7.79,3.75-13.46,5.52-19.83L274.05,577c-6.47,19.3-13.29,37.4-18.2,56-1,3.91,4,12.9,7.93,14.06,19,5.65,38.53,9.43,58.39,14,2.1-9.75,3.88-18,5.78-26.78l-19.88-5c19.7-11.26,38-21.45,55.95-32.17,5.06-3,8.87-2.71,14-.22,31.39,15.42,62.95,30.48,94.46,45.63,3,1.46,6.16,2.77,10.17,4.57,0-44-.17-86.67.17-129.3C482.83,511,480.47,507.63,474.76,504.53Z"/><path class="cls-2" d="M741.05,623.36c-2.65-5.37-3.91-11.42-5.79-17.16-3.14-9.53-6.26-19.06-9.6-29.23L700,585.56c1.86,6.72,3.43,12.39,5.48,19.75C686.3,594.38,668.8,584.1,651,574.43c-5.56-3-7.35-6.57-7.3-12.79.29-37,.15-73.92.12-110.88,0-3.3-.32-6.59-.57-11.2C601.43,462.5,561,484.63,520.73,507a9,9,0,0,0-3.86,6.64c-.23,44-.17,87.9-.17,133.41,4.77-2.16,7.94-3.51,11-5,31.57-15.11,63.1-30.3,94.72-45.3,2.63-1.25,6.61-2.82,8.61-1.74,19.45,10.57,38.6,21.68,59.65,33.65l-19,4.73,5.6,26.41c16.88-3.28,32.41-6.6,48.06-9.25S749.28,640,741.05,623.36Z"/><path class="cls-3" d="M623.1,411.1c-31.51-15.16-61.46-30.58-92.31-44-13.42-5.82-18.79-12.8-17.32-27.53,1.52-15.24.34-30.76.34-48.48l13,14.28,20.66-17.66c-12.82-15.18-24.72-29.66-37.08-43.75-5.48-6.24-14.25-6.89-19.51-1-12.94,14.36-25.2,29.33-38.27,44.67l20.93,17.62,12.9-14.43c0,22.42.29,42.16-.3,61.87-.09,3-3.59,7.1-6.56,8.6-20.45,10.28-41.19,20-61.81,29.93-13.34,6.43-26.65,12.94-41,19.91,2.26,1.57,3.43,2.55,4.74,3.27,37.59,20.74,75.12,41.59,112.93,61.93,3,1.62,8.64,1,11.89-.79C542.74,456,578.94,436,615.18,416.11,617.57,414.8,619.8,413.2,623.1,411.1Z"/></g><g id="Warstwa_2" data-name="Warstwa 2"><path class="cls-4" d="M500,146.42a352.11,352.11,0,1,1-137.6,27.74A351.28,351.28,0,0,1,500,146.42m0-100C249.49,46.42,46.42,249.49,46.42,500S249.49,953.58,500,953.58,953.58,750.51,953.58,500,750.51,46.42,500,46.42Z"/></g></svg>