<svg xmlns="http://www.w3.org/2000/svg" xmlns:xlink="http://www.w3.org/1999/xlink" viewBox="0 0 1000 1000"><defs><style>.cls-1{fill:url(#Gradient_bez_nazwy_7);}.cls-2{fill:url(#Gradient_bez_nazwy_7-2);}.cls-3{fill:url(#Gradient_bez_nazwy_7-3);}.cls-4{fill:url(#Gradient_bez_nazwy_7-4);}</style><linearGradient id="Gradient_bez_nazwy_7" x1="179.27" y1="179.27" x2="820.73" y2="820.73" gradientUnits="userSpaceOnUse"><stop offset="0" stop-color="#57d565"/><stop offset="1" stop-color="#7560ae"/></linearGradient><linearGradient id="Gradient_bez_nazwy_7-2" x1="281.16" y1="500" x2="718.84" y2="500" xlink:href="#Gradient_bez_nazwy_7"/><linearGradient id="Gradient_bez_nazwy_7-3" x1="395.38" y1="488.53" x2="442.54" y2="488.53" xlink:href="#Gradient_bez_nazwy_7"/><linearGradient id="Gradient_bez_nazwy_7-4" x1="525.77" y1="376.44" x2="588.17" y2="376.44" xlink:href="#Gradient_bez_nazwy_7"/></defs><g id="Warstwa_2" data-name="Warstwa 2"><path class="cls-1" d="M500,146.42a352.11,352.11,0,1,1-137.6,27.74A351.28,351.28,0,0,1,500,146.42m0-100C249.49,46.42,46.42,249.49,46.42,500S249.49,953.58,500,953.58,953.58,750.51,953.58,500,750.51,46.42,500,46.42Z"/><g id="jlCduk.tif"><path class="cls-2" d="M326.35,564.58c-68.52-83.68-54.51-194.87,11-259.6s175-76.66,257.1-8.93c9-9.28,18.16-18.81,27.45-28.15,10.26-10.3,17.41-10.48,27.07.09,63.43,69.41,84.92,150.39,59.2,240.77-25.52,89.65-86.13,146.49-175.45,172.38-3.4,1-6.85,1.8-11.38,3,5.23,11.23,10,22.12,15.47,32.68.95,1.84,4.56,3.12,7,3.22,9.06.38,18.14,0,27.21.21,9.76.24,15.92,6.11,15.87,14.67s-6.23,14.49-16,14.5q-100.59.15-201.18,0c-9.63,0-16-6.34-15.82-14.79s6.48-14,16.25-14.42c.33,0,.65,0,1,0,10.61-.3,24.62,3.48,31-1.88,8.79-7.39,11.8-21.67,17.69-33.84-8.83-2.54-16.82-4.65-24.69-7.14a243.67,243.67,0,0,1-96.72-57.78c-10.39-10-10.36-16.75-.06-27.13C307.48,583.22,316.72,574.15,326.35,564.58Zm21-227.5c-4.75,6.7-8.41,12.39-12.6,17.65-4.06,5.09-3.22,8.62,1.4,13.07q21.38,20.59,41.93,42c12,12.54,15.32,27.67,10.11,44.17-5.27,16.67-17.25,26.4-34.15,29.63-15.05,2.89-27.87-2.81-39.55-12.84,7.44,68.74,83.34,139.89,170.08,128.86-9.07-9.29-17.92-17.65-26-26.74a43.71,43.71,0,0,1,.93-59.33c15.72-16.58,40.75-18.23,59.07-3.89,1.28,1,2.43,2.16,3.68,3.19,6.74,5.5,13.63,5.79,20.16-.08,5.92-5.31,6-13.06.62-20.18-1.37-1.81-3-3.4-4.34-5.25-10.28-14.51-12.09-30.1-4-45.93,8.23-16.13,21.94-24.2,40.21-24,12.76.14,23,5.7,31.76,14.62,7.29,7.43,14.71,14.74,23.84,23.87,2.56-58.24-16.38-103.81-58.25-139.94-23.22,28.26-43.12,30.95-71.41,10.18-5.87-4.32-11.84-5.13-18-.95-7.49,5.11-8.21,14.81-1.17,22.91,10.89,12.54,14.53,26.78,10,42.57-9.12,31.94-48.35,42.21-72.5,18.73C395.31,386.13,372.12,362.06,347.36,337.08Zm-19.64,269c83.95,75.3,226.72,74.88,310.22-24.85,80.17-95.74,56.41-223.85-2.82-283.12l-19.15,19c70.2,87.13,48,195.37-6.54,252.69C579.56,601.21,543.71,621.34,501,628c-57.5,9-108.86-6.17-153-42.18C340.91,592.94,334.53,599.29,327.72,606.09Zm249-108.87C575.31,520.4,567.47,534.33,551,542c-16.78,7.84-32.75,5.26-47.17-6.46-9.5-7.72-16.85-8.28-23.08-1.74s-4.95,15.11,3.6,23.76c10.26,10.37,20.82,20.46,30.77,31.11,3.79,4,7.08,4.37,11.85,2.46q67.13-27,93.84-94.27c1.91-4.81,1.55-8.08-2.47-11.88-10.84-10.22-21.11-21.05-31.71-31.54-8-7.92-16.74-8.87-23-2.74s-5.1,13.12,1,22.56C570.32,482,574.08,491.87,576.7,497.22ZM368.14,317.39c11.21,11.11,22,21.78,32.79,32.51,12.86,12.83,25.52,25.86,38.58,38.48,6.16,5.95,14.5,5.85,20.16.68s6.1-13.46,1.1-20.24c-1.15-1.56-2.55-2.94-3.74-4.48-20-25.82-7.2-62.5,24.53-70,15-3.54,28,.78,39.64,10.64,10.7,9.08,20.71,6.4,24.17-6.1C497.2,267.25,414.25,275.43,368.14,317.39ZM435.59,719.5h68.86c-9-29.73-9.66-30.23-38.09-30.53-3.56,0-7.22-.72-10.64-.08-2.7.52-6.27,2-7.44,4.13C443.8,701.19,440.14,709.81,435.59,719.5ZM317.23,390.44c-2.19,11.8-4.15,21.2-5.52,30.7A9.37,9.37,0,0,0,314,428c7.56,8,15.2,15.92,23.36,23.25,6.32,5.68,14.77,5,19.95-.95,5.37-6.22,5.8-13.43.21-19.34C345.11,417.79,332.08,405.27,317.23,390.44Z"/><path class="cls-3" d="M407.15,518.27c-3.5-2.8-9.12-5.15-10.71-9.12-1.73-4.35-1.28-11,.94-15.23,5.06-9.65,11.8-18.42,17.82-27.57,4.26-6.48,10.2-9.21,17.51-6.54s11.4,8.71,9.28,16.13c-4.37,15.26-13.26,28-25.24,38.45C414.71,516.16,411.49,516.58,407.15,518.27Z"/><path class="cls-4" d="M569.44,358.4c11.49,1,18.38,6.26,18.72,15.26S582,387.84,570.76,389a162.94,162.94,0,0,0-23.68,4.63c-10,2.55-18.06-.68-20.63-8.91-2.44-7.8,1.76-15.91,11.06-18.72C548,362.83,558.78,360.88,569.44,358.4Z"/></g></g></svg>