<svg xmlns="http://www.w3.org/2000/svg" xmlns:xlink="http://www.w3.org/1999/xlink" viewBox="0 0 1000 1000"><defs><style>.cls-1{fill:url(#Gradient_bez_nazwy_7);}.cls-2{fill:url(#Gradient_bez_nazwy_7-2);}</style><linearGradient id="Gradient_bez_nazwy_7" x1="179.27" y1="179.27" x2="820.73" y2="820.73" gradientUnits="userSpaceOnUse"><stop offset="0" stop-color="#57d565"/><stop offset="1" stop-color="#7560ae"/></linearGradient><linearGradient id="Gradient_bez_nazwy_7-2" x1="319.45" y1="500" x2="680.55" y2="500" xlink:href="#Gradient_bez_nazwy_7"/></defs><g id="Warstwa_2" data-name="Warstwa 2"><path class="cls-1" d="M500,146.42a352.11,352.11,0,1,1-137.6,27.74A351.28,351.28,0,0,1,500,146.42m0-100C249.49,46.42,46.42,249.49,46.42,500S249.49,953.58,500,953.58,953.58,750.51,953.58,500,750.51,46.42,500,46.42Z"/><g id="dnuPgL.tif"><path class="cls-2" d="M370.33,487.09c3.79-34.07,19.59-51.55,45.83-51.56s42.33,17.64,45.83,51.56h25.1c0-14.43,0-28,0-41.68.07-14.57,8.95-20,21.58-13.2,9.85,5.29,19,3.94,25.42-3.73a19,19,0,0,0,.16-24.44c-6.35-7.76-15.63-9.24-25.37-4-12.85,6.85-21.71,1.67-21.78-12.84q-.12-26.19,0-52.37c.05-10.59,4.69-15.32,15.18-15.34q81.37-.09,162.74,0c10.89,0,15.47,4.74,15.47,15.88q.07,81,0,162c0,11-4.68,15.52-15.77,15.6-11.52.07-23,0-35.48,0,.36,17.47-4.59,32.52-19.07,43a44.27,44.27,0,0,1-29.56,8.49c-24.66-1.55-39.25-18.89-42.58-51H512.91c0,10.31,0,20.91,0,31.52,0,4.56.27,9.15-.12,13.69-.84,9.8-9.86,14.89-18.69,10.74-1.94-.91-3.69-2.22-5.64-3.08a19.21,19.21,0,1,0-.2,35.15c2-.84,3.72-2.13,5.65-3.06,8.81-4.23,18.52.72,18.78,10.44.51,19.87.4,39.75,0,59.62-.14,7.86-5.91,12.08-15.06,12.11-23.9.07-47.8,0-71.7,0q-45.1,0-90.23,0c-11.65,0-16.24-4.49-16.24-15.93q-.08-81,0-162c0-11,4.65-15.49,15.78-15.56C346.79,487,358.31,487.09,370.33,487.09Zm142.8-116.73c32.79,3.55,50.12,18.38,51.28,43.34A44.35,44.35,0,0,1,555,443.76c-10.51,13.57-25.11,18.26-41.42,17.85v25.48c13.54,0,26.42,0,39.3,0,16.93,0,21.74,7.81,14.14,22.89-4.58,9.09-2.65,18.56,5,24.56a18.92,18.92,0,0,0,23.81-.19c7.59-6.13,9.34-15.44,4.63-24.63-7.41-14.44-2.46-22.6,13.78-22.63,13.31,0,26.63,0,39.89,0V345.92h-141ZM345.64,654.16h141V629.79c-34.05-4.69-50.65-19.36-51.13-44.89a44.21,44.21,0,0,1,10.31-29.76c10.5-12.74,24.67-17.17,40.65-16.67V512.91c-14,0-27.37,0-40.77,0-15.09-.06-20.3-8.72-13.28-22,5.12-9.67,3.53-19-4.31-25.31a18.91,18.91,0,0,0-23.8-.1c-7.89,6.21-9.58,15.67-4.52,25.27,7,13.38,1.95,22.06-13,22.13-13.6.06-27.21,0-41.15,0Z"/></g></g></svg>