<svg xmlns="http://www.w3.org/2000/svg" xmlns:xlink="http://www.w3.org/1999/xlink" viewBox="0 0 1000 1000"><defs><style>.cls-1{fill:url(#Gradient_bez_nazwy_7);}.cls-2{fill:url(#Gradient_bez_nazwy_7-2);}.cls-3{fill:url(#Gradient_bez_nazwy_7-3);}</style><linearGradient id="Gradient_bez_nazwy_7" x1="239.75" y1="452.32" x2="760.25" y2="452.32" gradientUnits="userSpaceOnUse"><stop offset="0" stop-color="#57d565"/><stop offset="1" stop-color="#7560ae"/></linearGradient><linearGradient id="Gradient_bez_nazwy_7-2" x1="297.24" y1="642.88" x2="704.06" y2="642.88" xlink:href="#Gradient_bez_nazwy_7"/><linearGradient id="Gradient_bez_nazwy_7-3" x1="179.27" y1="179.27" x2="820.73" y2="820.73" xlink:href="#Gradient_bez_nazwy_7"/></defs><g id="Warstwa_1" data-name="Warstwa 1"><path class="cls-1" d="M707.79,431.4c-3.09-8.57-7.44-16.12-8.33-24.07-1.62-14.51,8.74-27.52,22.46-30.92a30.82,30.82,0,0,1,35,16.21c6.65,13.56,3.32,29.39-9.4,37.79-6,4-8.24,8.79-9.8,15.21-9.43,38.7-19.11,77.35-28.77,116-3.59,14.33-7.66,17.45-22.82,17.47q-185.93.27-371.84.48c-15.73,0-18.18-1.93-22.11-17.66-10.09-40.28-20-80.6-30.26-120.85a14.18,14.18,0,0,0-5.39-7.56c-17-11.41-21.62-28.95-11.38-44.4,9.34-14.08,29.07-17.73,43-8,15.21,10.65,16.94,29.53,4.26,46.31-.58.77-1,1.67-1.81,3.1,14.13,14.06,27.75,28.71,42.54,42.08,23,20.82,57.6,18.21,77.56-6.59,23.1-28.71,44.73-58.6,66.85-87.79-11.42-21.31-10.21-36.12,3.52-46.7a30.86,30.86,0,0,1,39.26,1.16c12.55,11,13.42,25.76,2.21,44.63,22.38,29.77,44.15,60.39,67.72,89.55,19.89,24.6,54.31,26.32,77.61,4.94C682.32,458.61,695.46,444,707.79,431.4Z"/><path class="cls-2" d="M500.15,674.93q-91.38,0-182.76,0c-15.35,0-19.94-4.57-20.1-19.88-.08-7.45,0-14.89,0-22.34.06-17.73,4.22-21.84,22.41-21.86q51.29-.06,102.55,0,129.47,0,258.92,0c19.85,0,22.82,3,22.85,23.15,0,7.78.14,15.57,0,23.35-.3,12.95-5,17.55-18,17.56Q593.05,675,500.15,674.93Z"/></g><g id="Warstwa_2" data-name="Warstwa 2"><path class="cls-3" d="M500,146.42a352.11,352.11,0,1,1-137.6,27.74A351.28,351.28,0,0,1,500,146.42m0-100C249.49,46.42,46.42,249.49,46.42,500S249.49,953.58,500,953.58,953.58,750.51,953.58,500,750.51,46.42,500,46.42Z"/></g></svg>