<svg xmlns="http://www.w3.org/2000/svg" xmlns:xlink="http://www.w3.org/1999/xlink" viewBox="0 0 1000 1000"><defs><style>.cls-1{fill:url(#Gradient_bez_nazwy_7);}.cls-2{fill:url(#Gradient_bez_nazwy_7-2);}.cls-3{fill:url(#Gradient_bez_nazwy_7-3);}</style><linearGradient id="Gradient_bez_nazwy_7" x1="179.27" y1="179.27" x2="820.73" y2="820.73" gradientUnits="userSpaceOnUse"><stop offset="0" stop-color="#57d565"/><stop offset="1" stop-color="#7560ae"/></linearGradient><linearGradient id="Gradient_bez_nazwy_7-2" x1="524.21" y1="467.21" x2="527.75" y2="470.75" xlink:href="#Gradient_bez_nazwy_7"/><linearGradient id="Gradient_bez_nazwy_7-3" x1="331.27" y1="500" x2="733.61" y2="500" xlink:href="#Gradient_bez_nazwy_7"/></defs><g id="Warstwa_2" data-name="Warstwa 2"><path class="cls-1" d="M500,146.42a352.11,352.11,0,1,1-137.6,27.74A351.28,351.28,0,0,1,500,146.42m0-100C249.49,46.42,46.42,249.49,46.42,500S249.49,953.58,500,953.58,953.58,750.51,953.58,500,750.51,46.42,500,46.42Z"/><path class="cls-2" d="M526,471.48c3.22,0,3.23-5,0-5s-3.22,5,0,5Z"/><g id="ezQC64.tif"><path class="cls-3" d="M428,614.58c-21.34,0-42.23,0-63.12,0-22.6,0-33.49-10.93-33.51-33.57,0-28.4.1-56.81-.07-85.22,0-7.05,1.13-13.37,7.92-16.72,7.09-3.49,12.91-.67,18.74,4.14,15.54,12.81,36,11.54,49.34-2.49,12.74-13.44,13.12-34.93.85-48.1-12.87-13.81-34.19-15.36-49.56-3.07-6,4.83-11.94,8.35-19.47,4.54-7.2-3.64-7.86-10.43-7.82-17.69.16-28.7,0-57.41.09-86.12.05-20.14,11.56-31.58,31.81-31.63,29-.06,58,.09,87-.08,7.07-.05,13.39,1.19,16.68,8,3.43,7.08.66,12.9-4.26,18.69-13.21,15.55-12,36.92,2.21,50.1a36,36,0,0,0,48.91-.23c14.34-13.36,15.46-34.37,2.14-50-4.68-5.51-7.4-11.08-4.42-17.91,3.21-7.36,9.76-8.66,17.17-8.61,29,.17,58,0,87,.09,20.13,0,31.56,11.58,31.63,31.83.07,21.45,0,42.9,0,64.7,31.56-8,57.22-.52,75.49,26.13,14.9,21.74,14.19,50-.59,71.75-15.87,23.32-41,32-74.9,25.12V557.3c0,9.27.14,18.54,0,27.81-.33,17.32-12.16,29.25-29.5,29.41-22.1.22-44.2.05-66.79.05,7.72,32.38,0,59-28.42,76.68-22.89,14.22-47.17,13.48-69.3-1.78C427.07,671.42,419.74,645.69,428,614.58Z"/></g></g></svg>