<svg xmlns="http://www.w3.org/2000/svg" xmlns:xlink="http://www.w3.org/1999/xlink" viewBox="0 0 1000 1000"><defs><style>.cls-1{fill:url(#Gradient_bez_nazwy_7);}.cls-2{fill:url(#Gradient_bez_nazwy_7-2);}.cls-3{fill:url(#Gradient_bez_nazwy_7-3);}.cls-4{fill:url(#Gradient_bez_nazwy_7-4);}.cls-5{fill:url(#Gradient_bez_nazwy_7-5);}.cls-6{fill:url(#Gradient_bez_nazwy_7-6);}</style><linearGradient id="Gradient_bez_nazwy_7" x1="179.27" y1="179.27" x2="820.73" y2="820.73" gradientUnits="userSpaceOnUse"><stop offset="0" stop-color="#57d565"/><stop offset="1" stop-color="#7560ae"/></linearGradient><linearGradient id="Gradient_bez_nazwy_7-2" x1="265.92" y1="541.43" x2="734.08" y2="541.43" xlink:href="#Gradient_bez_nazwy_7"/><linearGradient id="Gradient_bez_nazwy_7-3" x1="266.18" y1="402.11" x2="375.78" y2="402.11" xlink:href="#Gradient_bez_nazwy_7"/><linearGradient id="Gradient_bez_nazwy_7-4" x1="624.26" y1="402.11" x2="733.87" y2="402.11" xlink:href="#Gradient_bez_nazwy_7"/><linearGradient id="Gradient_bez_nazwy_7-5" x1="519.81" y1="381.59" x2="595.08" y2="381.59" xlink:href="#Gradient_bez_nazwy_7"/><linearGradient id="Gradient_bez_nazwy_7-6" x1="410.49" y1="381.55" x2="485.46" y2="381.55" xlink:href="#Gradient_bez_nazwy_7"/></defs><g id="Warstwa_2" data-name="Warstwa 2"><path class="cls-1" d="M500,146.42a352.11,352.11,0,1,1-137.6,27.74A351.28,351.28,0,0,1,500,146.42m0-100C249.49,46.42,46.42,249.49,46.42,500S249.49,953.58,500,953.58,953.58,750.51,953.58,500,750.51,46.42,500,46.42Z"/><g id="YJX1Hu.tif"><path class="cls-2" d="M500.19,458.58C514.51,442,531.62,432.48,553,432c20.62-.5,37.76,7.43,52.23,22a20.06,20.06,0,0,0,10.54,5.35c29.93,4.46,49.89,20.53,59.88,49.25a14.42,14.42,0,0,0,7.91,7.95c33.62,11,54.6,42.09,49.92,74.64-5,35-34.11,59.88-70.55,59.91q-162.93.12-325.88,0c-36,0-64.73-24.34-70.29-59.14-5.22-32.7,15.86-64.23,49.92-75.47,3.2-1.05,6.69-4.77,7.83-8,10.05-28.69,30-44.78,60-49.09,3.27-.47,7.1-1.81,9.31-4.08,30.43-31.35,72.71-31.38,103.13.17C497.71,456.27,498.59,457.06,500.19,458.58Zm-13.85,103.6c-14.87,6.37-28.08,8.61-41.93,4.78-22.86-6.33-39.92-27.78-40.19-50.88-.1-8.85,4.48-14.66,12.18-15.43s13.4,3.94,15,12.61c.38,2.1.48,4.24.89,6.33A27.22,27.22,0,0,0,459,541.44c13.3,0,24.95-9.72,26.62-22.91a108.06,108.06,0,0,0,.4-20c-1.15-18.83-12.77-33-30.43-37.7-17.17-4.6-34.09,1.64-44.38,17.36-4.37,6.69-9.42,9.46-17.34,8.88-18.26-1.32-32.1,6.33-40.13,22.77s-5.44,31.83,6.42,45.78c6.49,7.65,6.61,15.59.65,21-6.17,5.61-15.34,4.82-21.36-3.39-6.54-8.91-11.66-18.87-17.87-29.16-13.94,5.07-23.94,15.3-27.13,31.15s2.64,28.76,14.75,38.89c8.51,7.12,18.62,9.63,29.71,9.62q161.22-.16,322.45-.07c2.13,0,4.27,0,6.39-.13,20.07-1.63,36.9-18.06,38.59-37.62,1.63-18.95-11.09-36.9-28.87-41.47-4.31,8.13-7.93,16.52-12.92,24-7.92,11.84-16.37,14.63-24,9.22s-7.09-13.06,1.8-25c10-13.46,11.37-28,4-42.95s-20-23.31-36.62-22.6c-10.39.44-16.68-2.54-22.62-11.19-9.18-13.36-23.14-18.74-39.2-15.85-16.32,2.93-27.66,12.78-32.13,28.82-2,7.16-1.85,15.06-1.82,22.62.08,17.2,10.4,29,25.54,29.93s26.31-9.23,29-26.51c1.57-10.07,7.06-15.14,15.39-14.2s12.53,7.27,11.85,17.41c-2.39,35.37-37.84,59.1-71.7,48-3-1-6-2.06-10.28-3.55,0,7.55.29,13.6-.07,19.61-.53,8.68-6.09,14.16-13.7,14.1s-13-5.61-13.51-14.3C486.07,575.93,486.34,569.89,486.34,562.18Z"/><path class="cls-3" d="M307.42,398.06c6.47-7.15,11.3-13.05,16.71-18.34,6.85-6.69,14.06-6.75,20.92-.21q13.21,12.58,25.82,25.8c6.39,6.68,6.45,14.65.71,20.25s-13.51,5.36-20.28-1.25c-5.43-5.3-10.33-11.13-16.77-18.14-5.87,6.56-10.49,12.21-15.62,17.33-8,8-15,8.05-22.93.37q-12.47-12-24.52-24.53c-6.79-7-7-15.19-.86-20.9,5.66-5.28,13.67-4.81,20.28,1.7C296.06,385.25,300.78,390.83,307.42,398.06Z"/><path class="cls-4" d="M665.53,405.83c-6.43,7.13-11.25,13-16.63,18.32-7,6.93-15.22,7.06-20.93.92-5.41-5.82-4.94-13.43,1.66-20.25,8.25-8.52,16.62-16.94,25.18-25.15,6.89-6.6,14.1-6.69,20.92-.12,5.46,5.26,10.34,11.11,17.45,18.86,5.94-6.84,10.57-12.76,15.83-18.08,6.86-6.95,15.19-7.25,20.89-1.4s5.34,13.49-1.17,20.26Q716.4,412,703.55,424.34c-7.32,7-14.15,6.88-21.65,0-2.9-2.68-5.74-5.45-8.38-8.39C671.09,413.21,669,410.21,665.53,405.83Z"/><path class="cls-5" d="M551.9,394.3c-2.3,4.67-4.06,8.85-6.36,12.72-3.95,6.66-11.78,9.15-18.08,5.67-6.79-3.75-9.33-9.9-6.54-17a249.81,249.81,0,0,1,12.3-26.39c3.66-6.84,10.06-8.51,17.25-6.08,4,1.35,7.74,3.4,12.6,5.59,2.11-4.15,3.95-8.16,6.12-12,4.08-7.19,11.84-9.81,18.57-6.46,6.4,3.19,9.12,10.52,6.07,17.94s-6.66,15-10.24,22.33c-5.08,10.44-11.46,12.59-22.31,7.8Z"/><path class="cls-6" d="M442,368.15a10.86,10.86,0,0,0,1.85-.17c23.86-8.94,23.86-9,35,14.9,1.93,4.12,4.12,8.15,5.7,12.41,2.7,7.28-.36,14.81-6.83,17.72s-14,.38-17.92-6.44c-2.1-3.66-3.77-7.56-6-12.09-4.05,1.69-7.83,3.33-11.66,4.84-8.59,3.4-14.93,1.35-19.06-6.72-4-7.83-7.72-15.83-11.15-23.93-3.29-7.77-.44-15.52,6.31-18.56s14.3-.22,18.37,7.15C438.43,360.69,440,364.27,442,368.15Z"/></g></g></svg>