<svg xmlns="http://www.w3.org/2000/svg" xmlns:xlink="http://www.w3.org/1999/xlink" viewBox="0 0 1000 1000"><defs><style>.cls-1{fill:url(#Gradient_bez_nazwy_7);}.cls-2{fill:url(#Gradient_bez_nazwy_7-2);}</style><linearGradient id="Gradient_bez_nazwy_7" x1="179.27" y1="179.27" x2="820.73" y2="820.73" gradientUnits="userSpaceOnUse"><stop offset="0" stop-color="#57d565"/><stop offset="1" stop-color="#7560ae"/></linearGradient><linearGradient id="Gradient_bez_nazwy_7-2" x1="259.43" y1="500" x2="740.57" y2="500" xlink:href="#Gradient_bez_nazwy_7"/></defs><g id="Warstwa_2" data-name="Warstwa 2"><path class="cls-1" d="M500,146.42a352.11,352.11,0,1,1-137.6,27.74A351.28,351.28,0,0,1,500,146.42m0-100C249.49,46.42,46.42,249.49,46.42,500S249.49,953.58,500,953.58,953.58,750.51,953.58,500,750.51,46.42,500,46.42Z"/><g id="_0mVgqa.tif" data-name="0mVgqa.tif"><path class="cls-2" d="M730.85,532.27c-24.41-65.85-48-132-72.13-197.95-5.89-16.07-17.64-25.69-34.89-27.54-17.54-1.89-31,5.18-40.87,19.66-7.06,10.38-14.25,20.67-21.26,31.08-6,8.87-5,17.59,2.22,22.3s14.76,2.51,20.83-6.08c6.69-9.48,13.29-19,19.69-28.72,4-6,8.31-11.12,16.5-10.07,7.81,1,10.64,6.82,13,13.23q23.5,63.51,47,127a30.45,30.45,0,0,1,.88,5.26C648.21,464,614.77,462,581.31,477.29s-53.89,41.83-63.26,75.9H482.73c-17.46-67.25-91-107.32-163.92-73.73,16.42-45.35,32-89,48.12-132.46,4.11-11.07,16.27-12.39,24.23-3.09,8.76,10.25,16.8,21.11,25.41,31.5,6.33,7.64,13.94,8.84,20.55,3.78s7.27-13.78,1.17-21.65c-7.68-9.93-15.7-19.59-23.4-29.5-10.42-13.42-23.72-20.41-40.83-17.93-18.29,2.65-29.26,13.92-35.41,31C314.58,408.14,290.22,475,266.09,542a113.2,113.2,0,0,0,32.8,124.12c35.91,30.67,86.12,36,127.24,13.42C459.82,661,477.87,631.34,485,594.33c1.68-8.72,6.32-13.47,15-13.81,8-.31,13.3,4.84,15.1,13.71,1,4.9,2.43,9.71,3.69,14.55a113.45,113.45,0,0,0,106.28,84.69c49.15,1.55,94.73-30.94,110.12-78.36C744.39,586.9,741,559.66,730.85,532.27ZM390.17,663.17c-42.74,9.33-86-16.13-98.76-58.16-16.09-52.93,28.51-96.69,48.5-103.24a131.55,131.55,0,0,1,21-4.52s14-1.74,26.15-.42c20.43,2.22,68.66,29.91,69.76,80.84C457.69,618.76,429.83,654.52,390.17,663.17Zm237.19,2c-46.73-.42-84.38-39-84-86,.4-46.41,38.62-83.91,85.18-83.57a84.44,84.44,0,0,1,84,85.71C712.11,627.51,673.48,665.57,627.36,665.15Z"/></g></g></svg>