<svg xmlns="http://www.w3.org/2000/svg" xmlns:xlink="http://www.w3.org/1999/xlink" viewBox="0 0 1000 1000"><defs><style>.cls-1{fill:url(#Gradient_bez_nazwy_7);}.cls-2{fill:url(#Gradient_bez_nazwy_7-2);}.cls-3{fill:url(#Gradient_bez_nazwy_7-3);}.cls-4{fill:url(#Gradient_bez_nazwy_7-4);}.cls-5{fill:url(#Gradient_bez_nazwy_7-5);}.cls-6{fill:url(#Gradient_bez_nazwy_7-6);}.cls-7{fill:url(#Gradient_bez_nazwy_7-7);}.cls-8{fill:url(#Gradient_bez_nazwy_7-8);}.cls-9{fill:url(#Gradient_bez_nazwy_7-9);}.cls-10{fill:url(#Gradient_bez_nazwy_7-10);}.cls-11{fill:url(#Gradient_bez_nazwy_7-11);}.cls-12{fill:url(#Gradient_bez_nazwy_7-12);}.cls-13{fill:url(#Gradient_bez_nazwy_7-13);}</style><linearGradient id="Gradient_bez_nazwy_7" x1="179.27" y1="179.27" x2="820.73" y2="820.73" gradientUnits="userSpaceOnUse"><stop offset="0" stop-color="#57d565"/><stop offset="1" stop-color="#7560ae"/></linearGradient><linearGradient id="Gradient_bez_nazwy_7-2" x1="512.36" y1="531.16" x2="590.46" y2="531.16" xlink:href="#Gradient_bez_nazwy_7"/><linearGradient id="Gradient_bez_nazwy_7-3" x1="305.04" y1="471.11" x2="383.21" y2="471.11" xlink:href="#Gradient_bez_nazwy_7"/><linearGradient id="Gradient_bez_nazwy_7-4" x1="615.99" y1="470.96" x2="694.25" y2="470.96" xlink:href="#Gradient_bez_nazwy_7"/><linearGradient id="Gradient_bez_nazwy_7-5" x1="408.79" y1="530.95" x2="486.85" y2="530.95" xlink:href="#Gradient_bez_nazwy_7"/><linearGradient id="Gradient_bez_nazwy_7-6" x1="408.77" y1="650.62" x2="486.88" y2="650.62" xlink:href="#Gradient_bez_nazwy_7"/><linearGradient id="Gradient_bez_nazwy_7-7" x1="512.34" y1="651.12" x2="590.54" y2="651.12" xlink:href="#Gradient_bez_nazwy_7"/><linearGradient id="Gradient_bez_nazwy_7-8" x1="525.27" y1="381.85" x2="680.54" y2="381.85" xlink:href="#Gradient_bez_nazwy_7"/><linearGradient id="Gradient_bez_nazwy_7-9" x1="421.99" y1="441.79" x2="577.84" y2="441.79" xlink:href="#Gradient_bez_nazwy_7"/><linearGradient id="Gradient_bez_nazwy_7-10" x1="317.78" y1="381.66" x2="474.07" y2="381.66" xlink:href="#Gradient_bez_nazwy_7"/><linearGradient id="Gradient_bez_nazwy_7-11" x1="304.97" y1="590.81" x2="383.24" y2="590.81" xlink:href="#Gradient_bez_nazwy_7"/><linearGradient id="Gradient_bez_nazwy_7-12" x1="615.1" y1="591.35" x2="695.03" y2="591.35" xlink:href="#Gradient_bez_nazwy_7"/><linearGradient id="Gradient_bez_nazwy_7-13" x1="422.36" y1="323.7" x2="577.99" y2="323.7" xlink:href="#Gradient_bez_nazwy_7"/></defs><g id="Warstwa_2" data-name="Warstwa 2"><path class="cls-1" d="M500,146.42a352.11,352.11,0,1,1-137.6,27.74A351.28,351.28,0,0,1,500,146.42m0-100C249.49,46.42,46.42,249.49,46.42,500S249.49,953.58,500,953.58,953.58,750.51,953.58,500,750.51,46.42,500,46.42Z"/><g id="PSNpYc.tif"><path class="cls-2" d="M590.45,463.79c0,30,.06,58.4-.14,86.75a7.37,7.37,0,0,1-3.17,5.3c-24.2,14.17-48.52,28.12-73.81,42.7a67.26,67.26,0,0,1-.91-7.24c0-25.27-.15-50.54.12-75.81,0-2.9,1.38-7.18,3.53-8.46C540.14,492.67,564.49,478.78,590.45,463.79Z"/><path class="cls-3" d="M305.06,403.86c26,15,50.5,29.07,74.85,43.42,1.72,1,3.17,4,3.18,6.13.19,27.23.1,54.46,0,81.68,0,.75-.46,1.49-1.05,3.27-3.48-2-6.6-3.65-9.67-5.42-20.62-11.88-41.29-23.68-61.76-35.82-2.44-1.45-5.32-4.79-5.35-7.29C304.92,461.77,305.06,433.7,305.06,403.86Z"/><path class="cls-4" d="M616,538V510.44c0-18.44-.13-36.87.15-55.3,0-2.68,1.25-6.61,3.22-7.78,24.29-14.43,48.83-28.46,74.82-43.47v25.57c0,19.56.16,39.14-.18,58.7,0,2.8-1.74,6.82-3.94,8.13-23.13,13.76-46.52,27.09-69.85,40.5C619.35,537.3,618.23,537.4,616,538Z"/><path class="cls-5" d="M408.81,463.74c26,15,50.32,29,74.51,43.17,1.63,1,3.36,3.42,3.37,5.2.21,28.3.15,56.6.15,86-3.15-1.42-5.18-2.13-7-3.18-21.88-12.59-43.78-25.16-65.52-38-2.32-1.37-5.24-4.32-5.26-6.56C408.69,522.1,408.81,493.76,408.81,463.74Z"/><path class="cls-6" d="M408.8,583.52l47,27.16c8.6,5,17.32,9.71,25.71,15,2.29,1.44,5.05,4.44,5.08,6.76.35,28.05.23,56.1.23,85.28a57.78,57.78,0,0,1-6.69-2.74c-21.88-12.57-43.78-25.1-65.49-38-2.51-1.48-5.59-4.75-5.63-7.23C408.65,641.73,408.8,613.66,408.8,583.52Z"/><path class="cls-7" d="M512.38,717.29V696c0-20.15-.17-40.3.18-60.44.06-3.11,1.64-7.64,4-9.05,23.35-14,47-27.41,70.6-41,.66-.37,1.58-.3,3.33-.59v42.59c0,13.33.22,26.68-.17,40-.09,2.86-1.62,7-3.81,8.27-23.38,13.91-47,27.37-70.63,40.92C515.23,717.1,514.31,717,512.38,717.29Z"/><path class="cls-8" d="M680.54,382.26c-25,14.45-49.81,28.78-74.67,43a5.51,5.51,0,0,1-4.61.14c-25.07-14.29-50-28.73-76-43.7,25.64-14.83,50.15-29.08,74.81-43.08a8.18,8.18,0,0,1,6.84.09c23.93,13.6,47.72,27.45,71.53,41.28C679.1,380.34,679.53,381.12,680.54,382.26Z"/><path class="cls-9" d="M577.84,441.54c-25.92,15-50.42,29.18-75,43.18a7.3,7.3,0,0,1-6.08.08c-24.63-14-49.15-28.2-74.73-43,3-2,5.1-3.52,7.36-4.83,21.6-12.51,43.17-25.09,64.93-37.32,2.48-1.39,6.84-2.15,9.05-.91C527.82,412.49,552.05,426.65,577.84,441.54Z"/><path class="cls-10" d="M317.78,381.67c25.88-14.95,50.65-29.31,75.52-43.49a6.42,6.42,0,0,1,5.37.07c24.86,14.17,49.63,28.52,75.4,43.41-25.81,14.9-50.59,29.25-75.46,43.42a6.39,6.39,0,0,1-5.36,0C368.39,410.94,343.63,396.59,317.78,381.67Z"/><path class="cls-11" d="M305.06,523.6c25.75,14.88,49.86,28.7,73.8,42.8,2,1.19,4.16,4.19,4.18,6.37.28,28.07.19,56.14.19,85.25a69.63,69.63,0,0,1-6.75-2.89c-17.46-10-34.82-20.28-52.35-30.2C311,617.51,304.77,606.59,305,591.45,305.28,569.38,305.06,547.31,305.06,523.6Z"/><path class="cls-12" d="M616,659c0-22.22,1.79-42.78-.49-62.88-2.41-21.29,5.15-33,24.28-41.61,18.46-8.29,35.42-19.91,54.4-30.85,0,18.66-1.48,36,.34,53,2.92,27.3-7.53,44.85-32.35,56.08C646.79,639.75,632.61,649.47,616,659Z"/><path class="cls-13" d="M422.36,321.09c21.82-12.39,43.07-25.54,65.4-36.48,6.66-3.26,17.7-3,24.44.3,22.06,10.84,43.07,23.84,65.79,36.75-17.45,10.08-33.53,19.46-49.71,28.67-9.58,5.45-19.27,14.69-29,14.78-9.33.09-18.79-9.35-28.13-14.72Q447.55,336.81,424,323.08C423.59,322.83,423.33,322.27,422.36,321.09Z"/></g></g></svg>