<svg xmlns="http://www.w3.org/2000/svg" xmlns:xlink="http://www.w3.org/1999/xlink" viewBox="0 0 1000 1000"><defs><style>.cls-1{fill:url(#Gradient_bez_nazwy_7);}.cls-2{fill:url(#Gradient_bez_nazwy_7-2);}.cls-3{fill:url(#Gradient_bez_nazwy_7-3);}.cls-4{fill:url(#Gradient_bez_nazwy_7-4);}.cls-5{fill:url(#Gradient_bez_nazwy_7-5);}.cls-6{fill:url(#Gradient_bez_nazwy_7-6);}.cls-7{fill:url(#Gradient_bez_nazwy_7-7);}</style><linearGradient id="Gradient_bez_nazwy_7" x1="179.27" y1="179.27" x2="820.73" y2="820.73" gradientUnits="userSpaceOnUse"><stop offset="0" stop-color="#57d565"/><stop offset="1" stop-color="#7560ae"/></linearGradient><linearGradient id="Gradient_bez_nazwy_7-2" x1="254" y1="500" x2="746" y2="500" xlink:href="#Gradient_bez_nazwy_7"/><linearGradient id="Gradient_bez_nazwy_7-3" x1="370.26" y1="500" x2="629.78" y2="500" xlink:href="#Gradient_bez_nazwy_7"/><linearGradient id="Gradient_bez_nazwy_7-4" x1="428.14" y1="442.54" x2="456.6" y2="442.54" xlink:href="#Gradient_bez_nazwy_7"/><linearGradient id="Gradient_bez_nazwy_7-5" x1="543.4" y1="442.54" x2="571.9" y2="442.54" xlink:href="#Gradient_bez_nazwy_7"/><linearGradient id="Gradient_bez_nazwy_7-6" x1="428.14" y1="557.45" x2="456.6" y2="557.45" xlink:href="#Gradient_bez_nazwy_7"/><linearGradient id="Gradient_bez_nazwy_7-7" x1="543.42" y1="557.45" x2="571.91" y2="557.45" xlink:href="#Gradient_bez_nazwy_7"/></defs><g id="Warstwa_2" data-name="Warstwa 2"><path class="cls-1" d="M500,146.42a352.11,352.11,0,1,1-137.6,27.74A351.28,351.28,0,0,1,500,146.42m0-100C249.49,46.42,46.42,249.49,46.42,500S249.49,953.58,500,953.58,953.58,750.51,953.58,500,750.51,46.42,500,46.42Z"/><g id="Pf2YCF.tif"><path class="cls-2" d="M312.1,571.78V543.14H282.18c-3.84,0-7.69.11-11.52,0-10.43-.43-16.74-6.09-16.54-14.68.19-8.21,6.31-13.74,16.21-14,10.24-.28,20.49-.08,30.73-.09H312V485.65c-14.14,0-27.8,0-41.46,0-7.92,0-13.73-3.22-16-11.06-2.57-9,4.31-17.28,15-17.59,13.74-.39,27.49-.09,42.18-.09v-28.7c-6.77,0-14,0-21.14,0-7.68,0-15.39.27-23-.32-8.11-.64-12.77-5.63-13.33-13.73-.53-7.58,5.17-14,13.54-14.46,9.89-.59,19.84-.26,29.77-.3,4.45,0,8.9,0,14.24,0V370.77H289.46c-4.81,0-9.61,0-14.41,0-13.94-.06-20.76-4.69-20.93-14.18S261,342,274.58,342c9,0,17.93,0,26.9,0h8.85c2.29-8.65,2.13-18.56,7-23.53s14.84-5,24.11-7.68c0-9.39,0-20.15,0-30.9a107.08,107.08,0,0,1,.24-11.48c.94-8.25,7.1-14,14.67-13.4,8.11.62,13.22,5.3,13.66,13.39.59,10.82.27,21.69.33,32.54,0,3.49,0,7,0,11.4H399.1c0-7.39,0-15.2,0-23,0-6.7-.26-13.43.19-20.1.57-8.5,6.32-14.09,13.91-14.29,8-.2,14.2,5.52,14.61,14.54.47,10.19.17,20.42.2,30.63,0,3.8,0,7.6,0,12.28h28.73c0-11.71,0-23.68,0-35.65,0-14.8,4.5-21.64,14.23-21.8s14.63,6.87,14.67,21.37c0,11.77,0,23.53,0,36.13h28.73c0-10.92,0-21.94,0-33,0-3.19-.14-6.39.1-9.57.68-9.11,6.29-14.92,14.27-15s14.08,5.7,14.34,14.81c.41,14,.11,28,.11,42.73H572c0-10.75,0-21.46,0-32.18a95.14,95.14,0,0,1,.33-12.42c1.08-8.06,6-12.83,14.16-12.8s13.47,4.83,14,12.91c.7,10.81.33,21.69.4,32.53,0,3.76,0,7.52,0,12h28.72c0-10.29,0-20.37,0-30.45,0-4.15-.18-8.31.13-12.44.69-9.07,6.5-14.81,14.51-14.7s13.77,5.95,14.11,15.08c.39,10.52.14,21.06.16,31.6v9.31c9,2.47,18.81,2.47,23.93,7.34,4.84,4.6,4.76,14.32,7.38,23.73,8.64,0,19.08,0,29.51,0,4.16,0,8.35-.21,12.48.18,8.53.8,14,6.5,14,14.17s-5.45,13.77-13.93,14.2c-10.86.55-21.76.22-32.65.26-3.46,0-6.92,0-11.15,0V399.4c10.83,0,21.58,0,32.33,0,4.16,0,8.37-.21,12.47.34,8.08,1.1,12.85,6.06,12.79,14.16s-4.88,13.4-13,13.91c-10.84.69-21.76.33-32.64.4-3.77,0-7.55,0-12,0v28.64H714.9c3.84,0,7.68,0,11.53,0,12.76.13,19.65,5.32,19.48,14.65s-6.91,14.07-20,14.15c-9.29.05-18.57,0-27.86,0-3.12,0-6.24.31-10,.51v28.11c13.44,0,26.46-.26,39.46.14,4.29.13,10,.65,12.42,3.34,3.21,3.5,5.61,9.48,5.21,14.12-.6,7-6.41,10.86-13.62,11-10.88.27-21.77.1-32.66.19-3.44,0-6.87.3-10.86.48v28.17h41.59c8.38,0,14.29,3.64,16.09,12.07,1.85,8.69-5,16.3-15.27,16.58-13.73.37-27.48.09-42.12.09v28.69h21.27c6.41,0,12.81-.13,19.21,0,10.61.29,17,5.61,17.12,14.1.17,8.81-6.42,14.44-17.55,14.63-9.92.17-19.85,0-29.78,0H689.7c-2.29,8.64-2.12,18.55-7,23.52s-14.83,5-24.11,7.7c0,9.38,0,20.13,0,30.89a102,102,0,0,1-.26,11.47c-.94,8.29-7.08,14-14.66,13.41-8.1-.63-13.22-5.31-13.66-13.39-.59-10.82-.27-21.69-.32-32.54,0-3.49,0-7,0-11.4H600.94c0,7.1,0,14.58,0,22.07,0,7,.27,14.06-.19,21.05-.56,8.51-6.34,14.09-13.93,14.28-8,.19-14.17-5.58-14.59-14.56-.47-9.88-.17-19.79-.2-29.68,0-4.12,0-8.23,0-13.22H543.29c0,11.74,0,23.71,0,35.68,0,14.78-4.54,21.64-14.27,21.78s-14.59-6.91-14.64-21.41c0-10.85-.06-21.71-.14-32.56a22.39,22.39,0,0,0-.77-3.54H485.65q0,16.46,0,33c0,3.19.13,6.4-.11,9.57-.7,9.11-6.34,14.91-14.31,14.93s-14.05-5.74-14.31-14.87c-.39-14-.1-28-.1-42.69H428c0,10.82,0,21.54,0,32.26,0,4.14.21,8.34-.35,12.42-1.11,8.06-6.1,12.81-14.22,12.73s-13.43-4.89-13.94-13c-.68-10.81-.32-21.69-.39-32.54,0-3.75,0-7.5,0-12H370.37v26.72c0,4.15.05,8.3,0,12.45-.21,11.87-5.62,18.63-14.71,18.45-8.79-.18-14-6.69-14.15-18-.13-9.89,0-19.79-.06-29.68,0-3.12-.31-6.23-.46-9.17-26-5.65-26-5.65-29.36-30.17-10.18,0-20.63,0-31.07,0-4.17,0-8.35.2-12.48-.2-8.45-.82-14-6.63-13.94-14.25s5.55-13.7,14-14.12c10.54-.52,21.12-.21,31.69-.24,3.78,0,7.56,0,12.06,0V600.6c-10.94,0-21.69,0-32.45,0-4.16,0-8.37.21-12.46-.36-8.08-1.13-12.82-6.13-12.72-14.22s5-13.36,13.07-13.85c10.84-.67,21.75-.31,32.64-.38C303.73,571.76,307.49,571.78,312.1,571.78ZM342,657H657.64V342.8H342Z"/><path class="cls-3" d="M629.75,500c0,27.11.06,54.23,0,81.35,0,13.45-2.61,16.64-15.94,19.38-7.61,1.56-11.42,5.93-12.83,13.42-2.28,12.06-5.89,15.08-18.16,15.1q-82.57.13-165.14,0c-12.76,0-16.13-2.84-18.69-15.64-1.51-7.57-5.72-11.54-13.27-13-12.53-2.41-15.37-5.95-15.39-18.87q-.1-81.82,0-163.66c0-12.86,2.86-16.4,15.45-18.81,8.08-1.54,12-6.07,13.4-14,2-11.3,6-14.58,17.6-14.61q83-.15,166.1,0c12.22,0,15.84,3,18.1,15.15,1.5,8,5.86,12.11,13.84,13.55,11.78,2.13,14.86,6,14.91,18.3C629.83,445.15,629.75,472.59,629.75,500Zm-28.91.13c0-21.7-.15-43.4.1-65.1.07-5.9-1.32-9.46-6.86-13-6.47-4.15-11.05-11.15-16.9-16.42-2.9-2.61-6.79-5.84-10.25-5.87-44.5-.4-89-.19-133.5-.36-5.44,0-8.08,2-11.28,6.46-4.72,6.54-11.62,11.48-17.26,17.41-2.33,2.45-5.42,5.69-5.45,8.6q-.51,68,0,135.94c0,3,2.87,6.32,5.18,8.77,5.81,6.19,11.87,12.18,18.24,17.8,2.93,2.59,6.79,5.83,10.26,5.86,44.49.4,89,.19,133.5.36,5.44,0,8.12-2,11.26-6.47a65.27,65.27,0,0,1,16.72-16.59c4.7-3.15,6.39-6,6.34-11.32C600.72,544.2,600.84,522.18,600.84,500.16Z"/><path class="cls-4" d="M456.6,442.53a14.23,14.23,0,1,1-13.76-14.18A14.1,14.1,0,0,1,456.6,442.53Z"/><path class="cls-5" d="M557.82,456.72a14.19,14.19,0,1,1,14.07-14.83A14.1,14.1,0,0,1,557.82,456.72Z"/><path class="cls-6" d="M456.6,557.55a14.23,14.23,0,1,1-13.66-14.29A14.09,14.09,0,0,1,456.6,557.55Z"/><path class="cls-7" d="M558,571.64a14.19,14.19,0,1,1,13.93-15A14.1,14.1,0,0,1,558,571.64Z"/></g></g></svg>