<svg xmlns="http://www.w3.org/2000/svg" xmlns:xlink="http://www.w3.org/1999/xlink" viewBox="0 0 1000 1000"><defs><style>.cls-1{fill:url(#Gradient_bez_nazwy_7);}.cls-2{fill:url(#Gradient_bez_nazwy_7-2);}.cls-3{fill:url(#Gradient_bez_nazwy_7-3);}</style><linearGradient id="Gradient_bez_nazwy_7" x1="179.27" y1="179.27" x2="820.73" y2="820.73" gradientUnits="userSpaceOnUse"><stop offset="0" stop-color="#57d565"/><stop offset="1" stop-color="#7560ae"/></linearGradient><linearGradient id="Gradient_bez_nazwy_7-2" x1="287.91" y1="500" x2="511.75" y2="500" xlink:href="#Gradient_bez_nazwy_7"/><linearGradient id="Gradient_bez_nazwy_7-3" x1="537.94" y1="561.87" x2="712.09" y2="561.87" xlink:href="#Gradient_bez_nazwy_7"/></defs><g id="Warstwa_2" data-name="Warstwa 2"><path class="cls-1" d="M500,146.42a352.11,352.11,0,1,1-137.6,27.74A351.28,351.28,0,0,1,500,146.42m0-100C249.49,46.42,46.42,249.49,46.42,500S249.49,953.58,500,953.58,953.58,750.51,953.58,500,750.51,46.42,500,46.42Z"/><g id="hTZ7kG.tif"><path class="cls-2" d="M437.1,511.38c1.67,39.69,12,75.5,32.36,108.31,5.91,9.51,11.7,18.22,23.28,23,12.19,5,18,16.66,18.72,30,.45,8.53.3,17.11.08,25.65s-4.87,13.33-13.5,13.35q-98.07.15-196.14,0c-9.11,0-13.66-4.74-13.86-13.84-.18-7.72-.15-15.45,0-23.17.28-16.51,9.62-29.54,25.05-35.5,2.44-.94,5.31-2.13,6.75-4.1,26.15-36,40.47-76.12,42.5-120.59a16.26,16.26,0,0,0-.63-3c-22.23,1.41-41-4.25-47.47-28.44-5-18.76,3.4-32.58,19.59-42.89-2.85-8.7-5.65-17.29-8.47-25.87-9.34-28.51,7.61-51.87,37.71-51.95h23.7V337.89c-9.69-1.37-23.39,2.95-24-13.57-.32-8.45,5.49-11.07,24.2-12,1.63-9.59-3.19-25,13.91-24.06,14.36.79,10.73,14,11.7,23.85,9.74,1.61,24.54-2.82,24.07,13.5-.43,14.92-14.05,11.26-23.95,12.06v24.63c8.07,0,16.22,0,24.37,0,29.51.1,46.5,23.58,37.34,51.63-2.31,7.07-5.14,14-6.88,21.19a9.25,9.25,0,0,0,2.66,7.76c14.46,11.38,20,27,14.67,43.06-5.26,15.78-19.35,25.28-37.7,25.42C444.13,511.4,441.15,511.38,437.1,511.38ZM450.86,637c-24.71-38.87-36.89-80.31-38.78-125.2H387.49c-1.8,45-14.29,86.61-38.64,125.2ZM399.58,387.19c-13,0-25.94-.19-38.9.07-9.93.2-15.26,7.31-12.48,16.76s6,18.92,9.56,28.14c.81,2,4.09,4.44,6.26,4.47q35.58.48,71.16,0c2.34,0,5.83-2.64,6.74-4.88,3.4-8.41,6.05-17.13,8.79-25.78,3.79-11.92-1.22-18.66-13.9-18.75C424.4,387.12,412,387.19,399.58,387.19Zm-86.71,299.1H486.48c.1-1.95.22-3.31.23-4.68.22-16.14-3.08-19.53-19-19.54H403.93c-25.39,0-50.78-.06-76.17,0-10.22,0-14.65,4.51-14.88,14.54C312.81,679.66,312.87,682.68,312.87,686.29Zm86.28-199.78c15.71,0,31.42,0,47.13,0,9.67,0,15.41-4.6,15.56-12.16s-5.66-12.59-15.1-12.6q-47.13-.09-94.26,0c-9,0-14.58,4.81-14.73,12.14-.15,7.59,5.67,12.56,15.1,12.61C368.28,486.57,383.72,486.51,399.15,486.51Z"/><path class="cls-3" d="M568.11,502.61c-21-14.25-30.86-33.36-30.08-58,.2-6.34-.11-12.69.08-19,.26-8.65,4.77-13.5,13.33-13.52q73.66-.19,147.34,0c7.37,0,12.61,3.92,12.91,11.24.5,11.81.75,23.8-.68,35.5-2.34,19.16-13.26,33.45-27.52,42.85,1.14,10.41,3.56,19.63,2.78,28.58-1,11.86-8.61,20.41-18.9,26.68-2.33,1.42-4.63,5.42-4.44,8.05,1.7,23.54,7,46.29,17.43,67.59a15.85,15.85,0,0,0,7.27,6.81c15.67,7.07,24,18.81,24.33,36.07.13,7.72.21,15.46,0,23.17-.26,8.16-4.84,13.06-12.92,13.08q-74.07.21-148.16,0c-8,0-12.49-5-12.72-13.27-.22-8-.26-16,0-24,.53-16.16,8.47-27.32,23-34.47a21.45,21.45,0,0,0,9.4-9.06c9.94-20.87,15-43.13,16.71-66.12.17-2.36-1.33-6-3.22-7.2-21-13.86-25.78-28.76-16.19-52.27A11.72,11.72,0,0,0,568.11,502.61Zm-4.5-65.34c-5.1,31.91,16.22,51.52,43.56,49.41,13.16-1,26.47-.13,39.71-.18,27.94-.11,44.87-21.33,39.19-49H662.29c0,6.14.17,11.65,0,17.14-.29,7.75-5.2,13-12,13.3-7,.27-12.5-5.26-12.79-13.31-.21-5.7,0-11.41,0-17.19H612.62v7.93c0,2.76.06,5.52,0,8.27-.25,8.77-5.34,14.49-12.67,14.31-7.05-.17-11.94-5.69-12.16-14-.14-5.45,0-10.89,0-16.71ZM687.1,686.56c0-4.42.16-8,0-11.56-.45-8.07-5-12.81-13.18-12.85q-48.84-.24-97.7,0c-8.2,0-12.75,4.77-13.19,12.83-.21,3.75,0,7.52,0,11.58Zm-34.69-49.78-17-75.26H614.68c-5.81,25.61-11.44,50.39-17.08,75.26ZM625,536.18c8,0,16,.18,24,0s13.5-5.66,13.25-12.75c-.24-6.79-5.48-11.83-13.23-11.93q-24-.3-47.91,0c-7.77.09-13,5.11-13.25,11.9-.26,7.09,5.17,12.54,13.22,12.78S617,536.18,625,536.18Z"/></g></g></svg>