<svg xmlns="http://www.w3.org/2000/svg" xmlns:xlink="http://www.w3.org/1999/xlink" viewBox="0 0 1000 1000"><defs><style>.cls-1{fill:url(#Gradient_bez_nazwy_7);}.cls-2{fill:url(#Gradient_bez_nazwy_7-2);}</style><linearGradient id="Gradient_bez_nazwy_7" x1="308.5" y1="343.19" x2="691.92" y2="726.61" gradientUnits="userSpaceOnUse"><stop offset="0" stop-color="#57d565"/><stop offset="1" stop-color="#7560ae"/></linearGradient><linearGradient id="Gradient_bez_nazwy_7-2" x1="179.27" y1="179.27" x2="820.73" y2="820.73" xlink:href="#Gradient_bez_nazwy_7"/></defs><g id="Warstwa_1" data-name="Warstwa 1"><path class="cls-1" d="M226.52,572.13c1.75-73,16-135.71,51.73-192.35,21.28-33.71,49.31-58.11,91.33-60.43,29.83-1.65,56.57,8.31,81.6,23.76,32.72,20.21,65.42,20,98.22,0,31-18.94,63.81-29.62,100.52-20.91,27.35,6.49,47.79,23.23,63.83,45.39,31.1,42.95,47.79,91.63,55.64,143.7a353.61,353.61,0,0,1-2.16,119.89c-.46,2.43-1.14,4.83-1.63,7.27-7.86,39-45.88,57.14-79,28.44-23.83-20.69-46.13-43.26-67.92-66.12-11.1-11.66-22.71-18-39-17.81-53.37.5-106.74.42-160.11,0-15.47-.1-26.67,6-37.21,17.08-21.3,22.37-43.4,44-66,65.06-10.15,9.43-22.42,16.57-37.45,15.51-22-1.56-36.82-14.82-43.37-39.13a143.48,143.48,0,0,1-4.19-20.88C229.26,602.27,227.66,583.86,226.52,572.13Zm132.86-92.8c0,9.68.73,17.92-.18,26-1.19,10.51,4.65,14.24,13.21,15.42,4.47.62,9.2,0,13.73-.65,8.18-1.18,12.35-5.33,11.44-14.46-.83-8.33-.18-16.81-.18-26.28H420c16.75,0,24.05-10.11,19.43-26.5-2.2-7.8-6-12.1-15.05-11.2-8.29.83-16.72.18-25.89.18,0-8.46,0-15.16,0-21.87.09-16.88-2.06-19.14-19.25-19.48-3.17-.06-6.35.7-9.54,1-6.51.53-9.13,3.67-8.74,10.48.55,9.75.14,19.56.14,29.91H334.6c-12.67,0-14.92,1.79-15.73,14.22-.32,4.87.6,9.87,1.32,14.75.92,6.23,4.46,9,11.07,8.66C340.08,479,349,479.33,359.38,479.33Zm320.51,3.35a29.53,29.53,0,0,0,0-59.06c-15.74,0-29.25,13.23-29.63,29C649.9,468.82,663.57,482.68,679.89,482.68ZM606.71,380.16A28.88,28.88,0,0,0,577,408.42c-.46,16.74,12.19,30.21,28.69,30.54a29.2,29.2,0,0,0,29.75-28.43C635.89,393.67,623.34,380.4,606.71,380.16ZM577,490.72a29.24,29.24,0,1,0,29.93-29.25A29.37,29.37,0,0,0,577,490.72Z"/></g><g id="Warstwa_2" data-name="Warstwa 2"><path class="cls-2" d="M500,146.42a352.11,352.11,0,1,1-137.6,27.74A351.28,351.28,0,0,1,500,146.42m0-100C249.49,46.42,46.42,249.49,46.42,500S249.49,953.58,500,953.58,953.58,750.51,953.58,500,750.51,46.42,500,46.42Z"/></g></svg>