<svg xmlns="http://www.w3.org/2000/svg" xmlns:xlink="http://www.w3.org/1999/xlink" viewBox="0 0 1000 1000"><defs><style>.cls-1{fill:url(#Gradient_bez_nazwy_7);}.cls-2{fill:url(#Gradient_bez_nazwy_7-2);}.cls-3{fill:url(#Gradient_bez_nazwy_7-3);}.cls-4{fill:url(#Gradient_bez_nazwy_7-4);}</style><linearGradient id="Gradient_bez_nazwy_7" x1="310.79" y1="500" x2="689.21" y2="500" gradientUnits="userSpaceOnUse"><stop offset="0" stop-color="#57d565"/><stop offset="1" stop-color="#7560ae"/></linearGradient><linearGradient id="Gradient_bez_nazwy_7-2" x1="370.82" y1="445.89" x2="629.48" y2="445.89" xlink:href="#Gradient_bez_nazwy_7"/><linearGradient id="Gradient_bez_nazwy_7-3" x1="426.12" y1="443.99" x2="575.3" y2="443.99" xlink:href="#Gradient_bez_nazwy_7"/><linearGradient id="Gradient_bez_nazwy_7-4" x1="179.27" y1="179.27" x2="820.73" y2="820.73" xlink:href="#Gradient_bez_nazwy_7"/></defs><g id="Warstwa_1" data-name="Warstwa 1"><path class="cls-1" d="M420.87,280.83c17.46,3.36,32.42-3.32,46.77-14.8,29-23.18,36.11-23.35,64.62-.2,15,12.17,30.8,17.66,49.75,15.26a93.62,93.62,0,0,1,14.7-.2c15.46.53,27.42,7.81,30.36,22.91,5.77,29.67,21.49,50.61,47.59,65.42,13.47,7.64,18.16,21.6,11.66,35.77-12.69,27.64-12.69,54.19,0,81.8,6.55,14.23,1,26.85-11.49,36.07-6.3,4.66-12.63,9.33-19.27,13.47-11.12,6.94-16.73,17.27-21.69,29.14-8.86,21.15-7.93,40.46,2.2,61.19,10.42,21.31,17.83,44.1,26.47,66.28,5.44,13.95.76,19.62-14.27,17.79-13.94-1.71-28-2.55-41.82-4.93-7-1.21-10.84,1.22-14.86,6.14-8.88,10.9-18.15,21.47-27.27,32.17-9.28,10.88-16.66,9.66-22-3.9-11.58-29.43-22.9-59-34.67-88.32-1.35-3.38-4.81-5.92-7.3-8.85-2.58,2.8-6.25,5.17-7.57,8.47-11.65,29-22.87,58.28-34.25,87.43-6,15.3-13,16.46-23.54,4-9.1-10.72-17.93-21.69-27.6-31.87a17.35,17.35,0,0,0-12.15-4.85c-15,1-29.88,3-44.78,4.87-12.7,1.6-17.86-4.61-13.19-16.74C349,664,361.14,633.69,372.58,603.16c1.61-4.3,1-9.8.25-14.58-4.51-29.3-20.07-50.16-46-65.2-16.07-9.31-19.77-21.16-12.37-38,11.85-27,11.73-52.13-.05-79.06-7.35-16.8-3.4-28.5,12.52-37.91,25-14.75,40.25-34.72,45.89-63.25,3.27-16.52,15.64-24.08,32.32-24.35C410,280.76,414.92,280.83,420.87,280.83ZM576.35,590.5c31.38,0,29.18,4.58,36.75-24.61,6.2-23.92,20.32-40,40.67-52.55,17.63-10.89,18.34-12.29,10.39-30.55-10.85-24.94-10.78-48.84,0-73.76,7.77-18.07,7.24-19.85-9.74-29.89-23.1-13.66-37-32.66-43-58.89-4.44-19.76-6.23-20.7-26.25-18.87-25.53,2.34-47.36-4.25-66.91-21.16-17.4-15.05-18.84-15-36.25,0-19.25,16.62-40.68,23.5-65.93,21.16-21.2-1.95-21.66-1-27.72,19.75-.55,1.88-1.28,3.71-1.68,5.62-4.49,21.41-16.88,36.66-35.13,48.47-25.64,16.58-23,13.78-13,40.23,7.76,20.6,8.58,40.56-.17,60.84-1.68,3.89-2.68,8.06-4.44,11.9-4.29,9.37-2.06,16.57,7,21.35,27.48,14.55,44.27,36.82,49.45,67.64.16.95.66,1.84.9,2.79,2,7.74,6.78,11.09,15,10.84,12.06-.37,24.24-.7,36.22.45,18.22,1.75,31.06,14.24,44.81,24.65,11.38,8.62,14.3,8.61,25.78,0,2.35-1.76,4.83-3.39,7-5.34C537.05,595.5,556.39,587.57,576.35,590.5ZM443.53,722.15c11.48-29.3,22.33-56.74,32.78-84.33.67-1.77-1.13-5.36-2.85-7-15.8-15.13-33.95-23.85-56.63-20.49a57.13,57.13,0,0,1-17.56-.24c-6.37-1.06-8.62,1.76-10.57,7-5.54,15-11.51,29.76-17.28,44.63-3.43,8.86-6.81,17.73-10.74,28,13.79-1.69,25.78-2.88,37.66-4.71,8.53-1.31,14.93.51,20.4,7.83C425.94,702.47,434.24,711.28,443.53,722.15Zm113.27,0c9-10.49,17.15-19,24-28.43,6.11-8.41,13.33-10.09,22.95-8.44,11.44,2,23.08,2.85,36,4.35-8.77-22.33-17-43.19-25.14-64.05-5.86-14.91-5.86-14.89-21.24-14.83a62.47,62.47,0,0,1-9.78-.3c-22.58-3.4-40.9,5.1-56.65,20.35-1.83,1.78-3.5,5.83-2.72,7.88C534.56,665.94,545.37,693.07,556.8,722.11Z"/><path class="cls-2" d="M500.4,316.87c71.25.31,129.17,58.22,129.08,129.06-.08,71.4-58.42,129.23-130.1,129-71-.25-129-58.59-128.56-129.47C371.23,374.37,429.51,316.56,500.4,316.87Zm-.6,238.27c60,.13,109.08-48.45,109.71-108.59S560.64,336.91,500,337c-60.36.1-109.13,48.71-109.2,108.86C390.72,505.64,440,555,499.8,555.14Z"/><path class="cls-3" d="M449.91,505c1.92-11.58,4.18-23.13,5.54-34.77a14.14,14.14,0,0,0-3.15-10c-6.57-7.24-14.39-13.38-20.78-20.76-3-3.53-6.31-9.68-5.16-13.25s7.42-6.52,12-7.62c9.15-2.22,18.81-2.38,27.95-4.64a18.86,18.86,0,0,0,10.4-7.9c5.06-8.33,8.47-17.67,13.5-26,2.05-3.4,6.54-7.32,9.95-7.35s8,3.85,10,7.23c5.3,9,9.14,18.77,14.3,27.81a14.31,14.31,0,0,0,8.55,6.14c10.52,2.22,21.31,3.12,31.85,5.23,11.46,2.29,13.86,10.61,5.64,19.06-7.3,7.49-15.27,14.33-22.33,22a14.1,14.1,0,0,0-3.23,9.94c1.14,10.69,3.68,21.23,4.74,31.92.37,3.68-.9,9.4-3.44,11-3,1.93-8.81,1.77-12.39.22-11.61-5-22.73-15.46-34.1-15.55-11-.08-21.94,10.21-33,15.73C457.69,517.94,450.07,514,449.91,505Zm76.83-18.34c-8.91-22.13-1.56-37.85,16.62-51-24,2.48-36.63-9.33-43.87-31-4.56,24.42-20.38,31.71-42.66,31.94,20.59,12.21,23.87,29.22,17.06,51C491.82,471.07,508.64,473.23,526.74,486.64Z"/></g><g id="Warstwa_2" data-name="Warstwa 2"><path class="cls-4" d="M500,146.42a352.11,352.11,0,1,1-137.6,27.74A351.28,351.28,0,0,1,500,146.42m0-100C249.49,46.42,46.42,249.49,46.42,500S249.49,953.58,500,953.58,953.58,750.51,953.58,500,750.51,46.42,500,46.42Z"/></g></svg>