<svg xmlns="http://www.w3.org/2000/svg" xmlns:xlink="http://www.w3.org/1999/xlink" viewBox="0 0 1000 1000"><defs><style>.cls-1{fill:url(#Gradient_bez_nazwy_7);}.cls-2{fill:url(#Gradient_bez_nazwy_7-2);}</style><linearGradient id="Gradient_bez_nazwy_7" x1="301.18" y1="490" x2="698.82" y2="490" gradientUnits="userSpaceOnUse"><stop offset="0" stop-color="#57d565"/><stop offset="1" stop-color="#7560ae"/></linearGradient><linearGradient id="Gradient_bez_nazwy_7-2" x1="179.27" y1="179.27" x2="820.73" y2="820.73" xlink:href="#Gradient_bez_nazwy_7"/></defs><g id="Warstwa_1" data-name="Warstwa 1"><path class="cls-1" d="M664,540.58V601.7h-29.5V505.81H597.65V405.69H565v-98H530.21V243.41H469.79v64.28H435v98H402.35V505.81H365.46V601.7H336V540.58H301.18v196H336V673.36h34.77V637.53h31.62V601.7H435v-30h34.78v65.86h12.3v16.34h9.13V684.6h17.21V653.87h9.48V637.53h12.3V571.67H565v30h32.66v35.83h31.62v35.83H664v63.23h34.78v-196ZM530.21,410.44H469.79V387.25h60.42ZM500,339h30.21v20.38H469.79V339ZM435,503.7V486.49h34.78V503.7Zm95.2,0V486.49H565V503.7Z"/></g><g id="Warstwa_2" data-name="Warstwa 2"><path class="cls-2" d="M500,146.42a352.11,352.11,0,1,1-137.6,27.74A351.28,351.28,0,0,1,500,146.42m0-100C249.49,46.42,46.42,249.49,46.42,500S249.49,953.58,500,953.58,953.58,750.51,953.58,500,750.51,46.42,500,46.42Z"/></g></svg>