<svg xmlns="http://www.w3.org/2000/svg" xmlns:xlink="http://www.w3.org/1999/xlink" viewBox="0 0 1000 1000"><defs><style>.cls-1{fill:url(#Gradient_bez_nazwy_7);}.cls-2{fill:url(#Gradient_bez_nazwy_7-2);}.cls-3{fill:url(#Gradient_bez_nazwy_7-3);}.cls-4{fill:url(#Gradient_bez_nazwy_7-4);}.cls-5{fill:url(#Gradient_bez_nazwy_7-5);}.cls-6{fill:url(#Gradient_bez_nazwy_7-6);}.cls-7{fill:url(#Gradient_bez_nazwy_7-7);}</style><linearGradient id="Gradient_bez_nazwy_7" x1="179.27" y1="179.27" x2="820.73" y2="820.73" gradientUnits="userSpaceOnUse"><stop offset="0" stop-color="#57d565"/><stop offset="1" stop-color="#7560ae"/></linearGradient><linearGradient id="Gradient_bez_nazwy_7-2" x1="270.99" y1="500" x2="729.01" y2="500" xlink:href="#Gradient_bez_nazwy_7"/><linearGradient id="Gradient_bez_nazwy_7-3" x1="519.47" y1="484.3" x2="667.71" y2="484.3" xlink:href="#Gradient_bez_nazwy_7"/><linearGradient id="Gradient_bez_nazwy_7-4" x1="441.83" y1="406.26" x2="589.94" y2="406.26" xlink:href="#Gradient_bez_nazwy_7"/><linearGradient id="Gradient_bez_nazwy_7-5" x1="541.28" y1="445.29" x2="568.04" y2="445.29" xlink:href="#Gradient_bez_nazwy_7"/><linearGradient id="Gradient_bez_nazwy_7-6" x1="617.29" y1="369.43" x2="643.75" y2="369.43" xlink:href="#Gradient_bez_nazwy_7"/><linearGradient id="Gradient_bez_nazwy_7-7" x1="465.62" y1="521.06" x2="492.12" y2="521.06" xlink:href="#Gradient_bez_nazwy_7"/></defs><g id="Warstwa_2" data-name="Warstwa 2"><path class="cls-1" d="M500,146.42a352.11,352.11,0,1,1-137.6,27.74A351.28,351.28,0,0,1,500,146.42m0-100C249.49,46.42,46.42,249.49,46.42,500S249.49,953.58,500,953.58,953.58,750.51,953.58,500,750.51,46.42,500,46.42Z"/><g id="Gq2Vpw.tif"><path class="cls-2" d="M407.25,538.92c-14.58-24.91-22.68-48.84-25.85-74.65-10.74-87.66,50.7-172.53,137.76-189.68,112.88-22.24,213.92,64,209.73,178.94-3.62,99.38-94.75,177-193.42,164.94-23.07-2.81-44.89-9.21-65-20.72-5.79-3.31-8.92-2.71-13.48,1.9q-60.09,60.63-120.62,120.82c-11.25,11.23-16.43,11.25-27.53.18q-15.18-15.17-30.33-30.35c-10-10-10-15.7-.14-25.59q60.33-60.39,120.78-120.66C401.43,541.77,404.71,540.49,407.25,538.92ZM555,297.81c-81.37-.1-147.57,65.59-147.82,146.68-.26,81.78,65.64,148.16,147.18,148.27,81.36.1,147.51-65.57,147.79-146.73C702.43,364.2,636.62,297.91,555,297.81ZM385.14,598.51,305.57,678.2l15,16,80.07-80Zm36.63-2.29,18.84-18.15-17.54-17.7-18.7,18.46Z"/><path class="cls-3" d="M571.72,558.48c-5.94-.91-14-1.53-21.77-3.46a40.19,40.19,0,0,1-30-45.53c3.33-20.54,21.78-34.82,43.07-33.34,1.48.1,3,.27,4.44.46,15.2,2,20.59-3.35,18.53-18.29-2.78-20.25,6-37.17,23.3-44.75,22.75-10,48.57,2.52,55.15,26.71,15,55-24,111.53-80.88,117.12C580.34,557.72,577.08,558,571.72,558.48Zm69-96.39a125.86,125.86,0,0,0-2-13.57c-2-8.36-8.12-12.48-15.61-11.22-7.31,1.23-11.3,7.3-10.55,16,.41,4.73,1.51,9.52,1.06,14.16-2.43,24.87-22.3,39.4-48.73,36-10.58-1.35-17.18,2.51-18.28,10.69s4.19,14.1,14.35,15.92C602.67,537.55,640.44,506.45,640.77,462.09Z"/><path class="cls-4" d="M540.48,332c16.9.94,35.28,5.19,45.18,24.84,13.37,26.52-6.2,57.67-35.91,57.67a71.48,71.48,0,0,1-9.78-.86c-12.42-1.73-18.59,4.41-16.92,16.94,3.12,23.3-6.79,41.21-26.44,47.78C471,486.89,447,469.93,442.8,440.45,434.65,382.5,478.65,332.12,540.48,332Zm-72,97.46c.28,2.14.59,6,1.35,9.8,2,10.14,8.13,15.34,16.22,14.07s11.8-7.83,10.4-18.52c-4.07-31.11,16.84-52,47.83-47.74,10.62,1.46,17.24-2.31,18.45-10.49s-4-14.23-14.12-16.07C506.19,352.8,468.1,384.75,468.44,429.43Z"/><path class="cls-5" d="M568,445.31a13.38,13.38,0,1,1-12.88-13.38A13.49,13.49,0,0,1,568,445.31Z"/><path class="cls-6" d="M630.46,382.64a13.14,13.14,0,0,1-13.16-13.81,13.23,13.23,0,1,1,13.16,13.81Z"/><path class="cls-7" d="M492.11,520.75a13.06,13.06,0,0,1-12.49,13.53c-7.84.44-13.79-5-14-12.75A13,13,0,0,1,478,507.84,13.4,13.4,0,0,1,492.11,520.75Z"/></g></g></svg>