<?xml version="1.0" standalone="no"?>
<!DOCTYPE svg PUBLIC "-//W3C//DTD SVG 20010904//EN"
 "http://www.w3.org/TR/2001/REC-SVG-20010904/DTD/svg10.dtd">
<svg version="1.0" xmlns="http://www.w3.org/2000/svg"
 width="1377.000000pt" height="1377.000000pt" viewBox="0 0 1377.000000 1377.000000"
 preserveAspectRatio="xMidYMid meet">

<g transform="translate(0.000000,1377.000000) scale(0.100000,-0.100000)"
fill="#000000" stroke="none">
<path d="M13500 8646 c0 -8 5 -18 10 -21 6 -3 10 1 10 9 0 8 -4 18 -10 21 -5
3 -10 -1 -10 -9z"/>
<path d="M13470 8588 c0 -8 6 -20 13 -27 10 -11 10 -13 0 -7 -15 9 -18 -20 -3
-29 6 -3 10 -1 10 5 0 6 3 9 8 7 4 -3 7 8 8 24 1 16 -1 27 -4 24 -3 -3 -11 0
-19 6 -10 9 -13 8 -13 -3z"/>
<path d="M13545 8568 c5 -17 3 -28 -3 -28 -6 0 -13 10 -15 23 -3 12 -5 5 -4
-15 1 -20 -2 -40 -5 -43 -4 -4 -4 -13 -1 -21 3 -8 0 -14 -7 -14 -7 0 -10 8 -7
20 7 26 -10 26 -18 0 -4 -11 -10 -18 -14 -16 -4 3 -15 -8 -25 -25 -18 -30 -50
-42 -40 -14 4 8 9 13 13 10 4 -2 5 9 3 26 -6 38 -17 37 -59 -8 -27 -30 -34
-45 -31 -70 3 -27 2 -30 -11 -20 -11 10 -13 9 -9 -3 3 -8 2 -22 -3 -31 -5 -9
-2 -27 7 -45 10 -18 11 -24 3 -16 -21 20 -29 14 -23 -20 6 -32 6 -33 -10 -11
-9 12 -13 28 -10 36 3 9 -1 28 -10 44 -11 20 -15 23 -16 11 0 -10 -4 -18 -10
-18 -5 0 -10 -8 -10 -17 0 -16 -2 -16 -11 -3 -9 12 -10 11 -4 -5 8 -26 8 -26
0 -52 -7 -21 -35 -22 -35 -1 0 5 5 6 10 3 16 -10 12 11 -5 25 -11 9 -15 9 -15
1 0 -7 -4 -9 -10 -6 -17 11 -11 -11 12 -41 13 -15 17 -24 10 -20 -9 5 -13 3
-11 -5 4 -23 -12 -69 -22 -63 -5 3 -3 15 5 27 11 18 11 27 1 51 -8 19 -15 25
-20 17 -4 -7 -2 -18 4 -24 6 -6 11 -18 11 -26 0 -14 -1 -14 -10 -1 -8 12 -10
10 -11 -10 -3 -39 -4 -44 -14 -61 -15 -23 -42 -30 -56 -13 -9 11 -14 12 -20 3
-6 -10 -11 -10 -23 0 -9 8 -16 9 -16 4 0 -15 23 -33 42 -33 10 0 15 -5 12 -13
-3 -8 4 -13 17 -14 15 -1 19 2 15 13 -3 9 -1 12 4 9 20 -12 10 -35 -15 -35
-18 0 -23 -4 -19 -15 4 -8 1 -15 -6 -15 -7 0 -10 8 -7 20 3 11 1 23 -4 26 -5
3 -9 -2 -9 -10 0 -8 -5 -18 -11 -22 -8 -4 -9 3 -4 24 3 16 2 33 -4 36 -12 7
-41 -3 -41 -15 0 -4 6 -6 13 -3 12 4 13 -1 8 -70 -1 -12 -6 -16 -16 -12 -24 9
-46 -4 -40 -24 6 -20 -21 -24 -29 -3 -3 7 -10 13 -16 13 -17 0 -11 -26 10 -45
12 -11 20 -13 20 -6 0 7 5 9 10 6 6 -3 10 -13 10 -21 0 -11 -4 -12 -19 -4 -11
5 -22 7 -24 3 -3 -5 1 -46 9 -92 45 -280 58 -488 58 -906 1 -428 -8 -559 -55
-885 -145 -1006 -542 -1959 -1156 -2777 -328 -437 -779 -888 -1216 -1216 -532
-399 -1125 -709 -1755 -916 -224 -74 -321 -98 -451 -111 -241 -24 -472 -2
-686 66 -118 37 -308 134 -406 208 -100 75 -238 218 -296 304 -38 57 -41 65
-48 164 -5 56 -7 110 -6 119 1 9 -4 16 -11 17 -7 1 -24 3 -38 6 -20 3 -26 0
-26 -15 0 -12 5 -18 13 -15 7 3 13 1 13 -4 0 -6 -4 -10 -10 -10 -5 0 -7 -6 -4
-13 2 -7 -3 -21 -11 -32 -16 -19 -16 -19 -5 3 9 18 8 26 -4 38 -11 11 -14 27
-11 57 4 30 2 38 -5 27 -5 -8 -10 -23 -10 -34 0 -10 -8 -26 -18 -35 -11 -9
-24 -26 -31 -39 -10 -19 -15 -21 -33 -11 -18 10 -20 9 -15 -6 4 -9 7 -19 7
-21 0 -3 4 -2 10 1 6 4 10 -6 10 -23 0 -33 -27 -52 -42 -30 -6 9 -8 5 -6 -11
2 -13 -3 -26 -9 -28 -7 -3 -13 0 -13 6 0 6 -7 11 -15 11 -8 0 -15 -4 -15 -9 0
-5 -7 -17 -16 -26 -15 -15 -15 -17 0 -34 9 -10 16 -30 16 -44 0 -25 -2 -26
-22 -15 -41 23 -57 40 -51 54 3 8 0 14 -6 14 -21 0 -24 -31 -5 -46 11 -9 13
-13 7 -9 -8 4 -13 0 -13 -9 0 -8 6 -17 13 -19 8 -4 9 -8 1 -14 -6 -4 -14 -15
-18 -23 -3 -8 -4 -3 -1 11 3 17 -1 31 -10 39 -10 9 -15 9 -15 1 0 -6 -3 -10
-7 -10 -22 4 -33 -3 -33 -17 0 -14 3 -14 15 -4 17 14 19 7 5 -20 -11 -21 -42
-16 -34 5 3 7 1 16 -4 19 -5 3 -10 -7 -10 -22 0 -15 5 -30 11 -33 6 -4 4 -15
-6 -29 -8 -12 -13 -29 -10 -36 3 -8 0 -14 -6 -14 -6 0 -11 5 -11 10 0 6 -7 10
-15 10 -8 0 -15 -5 -15 -11 0 -8 -4 -8 -13 -1 -10 8 -20 5 -39 -13 -14 -13
-29 -21 -32 -17 -4 3 -4 -2 0 -12 5 -13 4 -17 -3 -13 -14 9 -25 -34 -12 -49 5
-6 6 -20 2 -29 -5 -14 -3 -16 7 -10 10 6 12 4 7 -9 -4 -10 -7 -20 -7 -22 0
-17 -20 11 -21 29 0 21 -1 21 -10 2 -7 -16 -8 -13 -4 11 4 23 2 31 -9 31 -8 0
-12 -6 -9 -14 3 -9 0 -11 -10 -8 -10 5 -16 -2 -19 -24 -3 -17 -1 -31 3 -31 16
0 -3 -29 -22 -35 -33 -11 -51 -35 -38 -51 7 -8 9 -18 5 -21 -4 -4 -11 -1 -16
7 -5 8 -15 15 -22 15 -7 0 -14 12 -16 28 -2 15 -7 25 -12 22 -4 -3 -6 -14 -3
-25 4 -16 2 -19 -11 -14 -21 8 -21 -4 0 -27 13 -15 21 -16 37 -8 17 10 19 9
14 -6 -4 -9 -7 -19 -7 -21 0 -3 -5 -2 -10 1 -6 3 -10 -1 -10 -9 0 -9 -4 -16
-9 -16 -5 0 -7 8 -4 19 3 10 0 22 -6 25 -7 5 -11 -3 -11 -18 0 -14 -5 -26 -11
-26 -6 0 -8 -7 -5 -16 3 -8 2 -12 -4 -9 -13 8 -13 -1 0 -25 7 -13 7 -21 0 -25
-5 -3 -10 3 -10 14 0 26 -17 36 -36 20 -20 -17 -28 -5 -14 21 10 18 9 21 -1
18 -8 -3 -16 -15 -20 -29 -3 -13 -12 -23 -20 -21 -8 1 -2 -9 13 -22 26 -23 23
-46 -4 -30 -8 5 -9 0 -6 -14 4 -12 2 -25 -3 -28 -5 -3 -6 -11 -3 -17 5 -8 2
-8 -7 1 -11 10 -11 18 -1 45 8 20 9 33 2 35 -5 2 -11 13 -11 25 -1 17 -2 18
-6 4 -2 -9 -9 -15 -14 -12 -5 4 -10 -6 -11 -22 -2 -48 2 -68 18 -80 10 -7 12
-13 4 -18 -6 -4 -8 -16 -6 -28 4 -13 0 -10 -8 7 -9 19 -15 24 -18 15 -3 -8 0
-22 6 -31 12 -20 -5 -45 -23 -34 -18 11 -13 26 7 19 15 -6 15 -4 4 9 -10 13
-11 22 -3 37 6 11 11 27 11 36 0 16 -2 16 -25 1 -23 -15 -25 -15 -26 1 0 10
-5 3 -10 -15 -10 -33 -24 -42 -32 -19 -2 6 -7 9 -11 5 -4 -3 -3 -15 3 -26 6
-12 10 -33 10 -49 -2 -27 -2 -27 -6 -3 l-5 24 -15 -24 c-8 -14 -12 -17 -9 -7
3 9 2 17 -2 18 -4 0 -17 2 -29 5 -13 2 -23 -1 -23 -7 0 -5 4 -7 10 -4 6 3 10
-4 10 -16 0 -17 -3 -19 -13 -10 -8 6 -17 8 -20 4 -4 -3 -13 0 -22 7 -12 10
-15 10 -15 -4 0 -15 11 -20 36 -17 16 2 24 -22 17 -49 -6 -22 -6 -21 -20 6
l-13 29 5 -28 c7 -34 -2 -67 -18 -67 -8 0 -8 3 1 12 18 18 15 45 -5 45 -23 0
-43 -21 -44 -44 0 -16 -1 -16 -9 2 -5 11 -9 15 -9 8 -1 -6 -8 -19 -17 -27 -8
-9 -12 -21 -8 -27 5 -9 12 -6 22 7 12 16 14 16 9 2 -3 -10 -2 -20 3 -23 5 -3
13 12 16 34 4 23 10 38 15 35 5 -3 9 3 9 12 0 13 3 15 11 7 8 -8 7 -17 -5 -34
-9 -13 -16 -34 -16 -46 0 -23 -7 -27 -47 -24 -24 2 -38 -13 -27 -30 4 -8 9 -7
15 2 6 11 9 10 15 -4 3 -9 10 -17 15 -17 4 0 6 7 3 15 -4 8 -1 15 5 15 16 0
13 -25 -4 -40 -12 -10 -18 -10 -32 1 -9 8 -18 13 -20 12 -13 -10 -24 0 -20 17
6 23 -3 26 -21 8 -9 -9 -12 -9 -12 2 0 7 -2 11 -5 8 -3 -3 3 -24 13 -46 10
-23 21 -39 25 -36 3 3 3 13 0 22 -4 9 -2 13 4 9 10 -6 15 -57 6 -57 -19 0 -43
25 -43 45 0 13 -4 26 -8 29 -14 9 -33 -10 -26 -27 3 -9 10 -14 15 -11 5 3 9
-1 9 -9 0 -17 -39 -67 -40 -52 0 6 5 16 11 22 14 14 4 47 -11 38 -6 -4 -8 -11
-5 -16 4 -5 -1 -16 -9 -25 -21 -20 -21 -2 0 37 8 17 13 36 11 42 -3 7 -8 4
-12 -8 -5 -11 -14 -27 -22 -36 -11 -13 -11 -22 -2 -43 15 -32 6 -44 -18 -25
-15 12 -16 12 -10 -3 8 -21 -20 -52 -37 -41 -7 4 -4 0 6 -9 18 -16 18 -17 1
-27 -15 -9 -16 -12 -3 -20 8 -6 11 -13 8 -16 -10 -10 -28 4 -28 21 0 8 -4 14
-10 14 -5 0 -10 -5 -10 -11 0 -5 -4 -8 -9 -5 -5 4 -7 -3 -4 -13 3 -11 11 -17
17 -15 7 3 19 -3 26 -13 11 -14 11 -15 1 -6 -19 16 -62 -4 -54 -25 4 -10 2
-13 -5 -8 -7 4 -13 26 -13 49 -1 23 -3 33 -6 22 -8 -34 -22 -41 -38 -19 -15
18 -15 18 -8 0 5 -16 3 -18 -11 -13 -15 6 -17 2 -14 -26 3 -31 18 -41 27 -16
2 7 -1 9 -8 5 -6 -4 -11 -1 -11 8 0 11 8 15 25 14 23 -2 42 -24 30 -36 -3 -3
-5 0 -5 6 0 7 -4 12 -10 12 -5 0 -6 -7 -3 -17 4 -9 2 -14 -3 -11 -5 3 -14 0
-21 -7 -9 -10 -8 -14 9 -18 11 -3 17 -10 13 -16 -3 -6 -3 -11 2 -11 4 0 78
-16 163 -35 1021 -230 2136 -214 3166 45 1531 384 2876 1280 3832 2552 459
612 836 1349 1061 2078 358 1156 405 2404 135 3580 -20 85 -40 160 -46 165 -6
7 -7 0 -3 -17z m-138 -112 c-3 -6 -9 -10 -14 -9 -11 2 -10 -30 2 -67 5 -15 3
-20 -3 -16 -6 3 -13 20 -17 36 -4 17 -11 28 -16 24 -5 -3 -5 -13 2 -25 6 -12
8 -23 5 -26 -3 -3 -10 7 -16 22 -9 23 -7 31 12 49 24 23 51 30 45 12z m-22
-105 c3 -5 1 -12 -5 -16 -5 -3 -10 1 -10 9 0 18 6 21 15 7z m-37 -30 c0 -21
-3 -28 -12 -25 -20 8 -11 50 10 54 1 0 1 -13 2 -29z m-102 -79 c-10 -10 -16
-12 -16 -5 0 7 5 15 10 18 6 3 11 16 11 28 2 21 2 21 6 -2 3 -13 -2 -30 -11
-39z m-32 -54 c-3 -12 -13 -29 -22 -37 -13 -13 -14 -12 -7 9 7 21 25 49 33 50
2 0 0 -10 -4 -22z m-234 -238 c0 -5 -4 -10 -10 -10 -5 0 -10 5 -10 10 0 6 5
10 10 10 6 0 10 -4 10 -10z m-6225 -6161 c-10 -15 -25 -10 -19 6 4 8 10 12 15
9 5 -3 7 -10 4 -15z m35 17 c0 -3 -4 -8 -10 -11 -5 -3 -10 -1 -10 4 0 6 5 11
10 11 6 0 10 -2 10 -4z m-24 -48 c4 -7 4 -10 -1 -6 -4 4 -16 3 -26 -3 -12 -6
-19 -6 -19 0 0 9 15 18 32 20 4 1 10 -5 14 -11z m-18 -32 c-7 -8 -15 -12 -17
-11 -5 6 10 25 20 25 5 0 4 -6 -3 -14z m24 -18 c-7 -7 -12 -8 -12 -2 0 14 12
26 19 19 2 -3 -1 -11 -7 -17z m-62 -43 c0 -17 -23 -25 -41 -14 -13 8 -6 13 14
10 4 0 7 6 7 15 0 8 5 12 10 9 6 -3 10 -12 10 -20z m-50 -36 c0 8 2 12 5 9 3
-3 3 -13 -1 -22 -5 -13 -9 -14 -20 -5 -8 6 -14 18 -14 25 0 8 -6 11 -15 8 -11
-5 -13 -2 -8 11 6 16 9 15 30 -11 13 -16 23 -23 23 -15z m-160 -127 c0 -13
-12 -22 -22 -16 -10 6 -1 24 13 24 5 0 9 -4 9 -8z m-30 -42 c0 -11 -4 -20 -10
-20 -5 0 -10 9 -10 20 0 11 5 20 10 20 6 0 10 -9 10 -20z m30 -29 c0 -5 -7
-11 -15 -15 -15 -5 -20 5 -8 17 9 10 23 9 23 -2z m-40 -28 c0 -13 -3 -13 -15
-3 -8 7 -15 16 -15 21 0 5 7 6 15 3 8 -4 15 -13 15 -21z m-107 -33 c-3 -11 -9
-17 -15 -14 -5 3 -4 12 3 20 16 19 18 18 12 -6z m43 8 c4 -7 3 -8 -4 -4 -7 4
-12 2 -12 -3 0 -6 -5 -11 -11 -11 -8 0 -8 5 1 15 15 18 17 18 26 3z m-68 -59
c9 -1 21 -1 25 0 5 1 6 -3 3 -8 -4 -5 -1 -11 6 -13 8 -3 9 -6 1 -11 -15 -9
-63 31 -62 51 1 15 2 15 6 0 2 -10 12 -19 21 -19z m-31 -31 c-3 -8 -6 -5 -6 6
-1 11 2 17 5 13 3 -3 4 -12 1 -19z m-37 -104 c0 -4 -9 1 -20 11 -11 10 -20 25
-20 33 0 9 7 6 20 -11 11 -14 20 -29 20 -33z m0 46 c0 -5 -4 -10 -10 -10 -5 0
-10 5 -10 10 0 6 5 10 10 10 6 0 10 -4 10 -10z m-30 -46 c0 -8 -4 -12 -10 -9
-5 3 -10 10 -10 16 0 5 5 9 10 9 6 0 10 -7 10 -16z m-50 -20 c0 -8 -5 -12 -10
-9 -6 4 -8 11 -5 16 9 14 15 11 15 -7z m-30 -88 c0 -3 -4 -8 -10 -11 -5 -3
-10 -1 -10 4 0 6 5 11 10 11 6 0 10 -2 10 -4z m-140 -65 c0 -6 -4 -13 -10 -16
-5 -3 -10 1 -10 9 0 9 5 16 10 16 6 0 10 -4 10 -9z m-95 -50 c-3 -12 -11 -19
-16 -16 -5 4 -5 14 2 26 13 26 23 18 14 -10z m95 -2 c0 -5 -4 -9 -10 -9 -5 0
-10 7 -10 16 0 8 5 12 10 9 6 -3 10 -10 10 -16z m-30 -35 c0 -8 -4 -14 -8 -14
-4 0 -8 9 -8 19 0 11 4 17 8 15 4 -3 8 -12 8 -20z m-145 -76 c1 -18 0 -28 -2
-21 -2 7 -12 9 -21 6 -14 -5 -15 -3 -4 8 6 7 12 22 12 33 0 31 13 10 15 -26z
m-15 -38 c0 -5 -5 -10 -11 -10 -5 0 -7 5 -4 10 3 6 8 10 11 10 2 0 4 -4 4 -10z
m-81 -32 c-3 -29 2 -49 11 -43 12 7 13 -5 2 -23 -9 -14 -42 -6 -42 10 0 5 5 6
12 2 8 -5 9 -2 4 11 -3 10 -4 26 -1 36 7 21 17 26 14 7z m24 -13 c-3 -9 -8
-14 -10 -11 -3 3 -2 9 2 15 9 16 15 13 8 -4z m-63 -112 c0 -22 -2 -25 -10 -13
-13 20 -13 40 0 40 6 0 10 -12 10 -27z m-30 1 c0 -1 -3 -9 -6 -18 -8 -22 -20
-20 -20 2 0 10 6 19 13 19 7 0 13 -1 13 -3z m-163 -186 c-3 -8 -6 -5 -6 6 -1
11 2 17 5 13 3 -3 4 -12 1 -19z m-53 -39 c-8 -13 -24 -1 -24 18 0 13 3 13 15
3 8 -7 12 -16 9 -21z m56 10 c0 -11 -27 -12 -34 -1 -2 4 4 9 15 9 10 1 19 -2
19 -8z m-80 -19 c0 -5 -4 -10 -10 -10 -5 0 -10 5 -10 10 0 6 5 10 10 10 6 0
10 -4 10 -10z m-21 -34 c8 -10 9 -16 1 -21 -5 -3 -10 1 -10 10 0 9 -4 13 -10
10 -5 -3 -10 -1 -10 4 0 15 15 14 29 -3z m-22 -38 c-3 -8 -6 -5 -6 6 -1 11 2
17 5 13 3 -3 4 -12 1 -19z m-50 -80 c-3 -8 -6 -5 -6 6 -1 11 2 17 5 13 3 -3 4
-12 1 -19z"/>
<path d="M13430 8518 c0 -6 3 -8 7 -5 3 4 12 2 20 -4 10 -9 13 -8 13 3 0 7 -9
14 -20 15 -11 1 -20 -3 -20 -9z"/>
<path d="M13430 8490 c0 -5 5 -10 10 -10 6 0 10 5 10 10 0 6 -4 10 -10 10 -5
0 -10 -4 -10 -10z"/>
<path d="M13330 8481 c0 -6 5 -13 10 -16 6 -3 10 1 10 9 0 9 -4 16 -10 16 -5
0 -10 -4 -10 -9z"/>
<path d="M13293 8443 c-7 -3 -13 -11 -13 -18 0 -14 27 -28 33 -17 8 13 -8 39
-20 35z"/>
<path d="M13241 8393 c-8 -9 -10 -18 -4 -24 5 -5 13 -1 21 11 14 23 2 33 -17
13z"/>
<path d="M13275 8360 c-3 -6 -3 -20 0 -31 6 -17 9 -19 16 -8 12 19 11 49 0 49
-6 0 -13 -5 -16 -10z"/>
<path d="M13210 8329 c0 -5 5 -7 10 -4 6 3 10 8 10 11 0 2 -4 4 -10 4 -5 0
-10 -5 -10 -11z"/>
<path d="M13075 8220 c-3 -5 -1 -10 4 -10 6 0 11 5 11 10 0 6 -2 10 -4 10 -3
0 -8 -4 -11 -10z"/>
<path d="M13096 8201 c-3 -5 1 -11 9 -15 8 -3 15 -1 15 4 0 13 -18 22 -24 11z"/>
<path d="M13040 8186 c0 -9 5 -16 10 -16 6 0 10 4 10 9 0 6 -4 13 -10 16 -5 3
-10 -1 -10 -9z"/>
<path d="M13100 8160 c0 -5 5 -10 10 -10 6 0 10 5 10 10 0 6 -4 10 -10 10 -5
0 -10 -4 -10 -10z"/>
<path d="M13060 8144 c0 -8 -6 -11 -15 -8 -8 4 -15 1 -15 -5 0 -6 3 -10 8 -9
4 1 17 -3 30 -10 23 -13 22 -14 26 30 1 6 -7 12 -16 14 -10 1 -18 -4 -18 -12z"/>
<path d="M12962 8029 c2 -7 10 -15 17 -17 8 -3 12 1 9 9 -2 7 -10 15 -17 17
-8 3 -12 -1 -9 -9z"/>
<path d="M12936 8015 c-11 -29 -7 -37 10 -20 11 11 13 20 7 26 -7 7 -12 5 -17
-6z"/>
<path d="M12872 7995 c2 -1 13 -8 26 -14 18 -9 22 -9 22 2 0 9 -10 15 -25 15
-14 0 -25 -2 -23 -3z"/>
<path d="M10710 5560 c-97 -20 -169 -43 -163 -53 8 -13 -19 -28 -33 -17 -16
14 -62 -11 -69 -37 -3 -13 -10 -23 -15 -23 -5 0 -7 6 -4 14 4 11 0 13 -15 9
-22 -6 -30 -46 -11 -58 5 -3 6 -13 3 -22 -6 -14 -9 -12 -19 12 -13 29 -13 29
-9 -17 4 -52 1 -56 -21 -33 -14 13 -14 16 0 21 20 8 20 15 0 40 -10 12 -14 14
-11 4 6 -23 -15 -39 -35 -29 -12 6 -18 6 -18 0 0 -6 8 -15 18 -20 9 -6 11 -11
5 -11 -7 0 -13 -5 -13 -11 0 -5 4 -8 8 -5 4 2 14 1 21 -4 11 -6 11 -11 -1 -29
-16 -23 -29 -19 -22 7 3 10 -2 6 -10 -8 l-15 -25 1 35 c1 59 -1 70 -15 64 -8
-3 -14 -18 -14 -34 0 -16 4 -27 9 -24 4 3 8 -6 8 -20 0 -31 -1 -31 -31 -6
l-23 21 -10 -23 -9 -23 -5 25 c-4 22 -5 21 -22 -15 -10 -22 -16 -44 -12 -50 3
-5 9 1 13 15 4 14 8 23 9 20 9 -25 6 -44 -10 -60 -18 -18 -18 -17 -25 3 -4 12
-7 29 -6 37 0 8 -6 2 -13 -15 -8 -16 -17 -29 -20 -27 -16 6 -19 0 -3 -9 20
-12 13 -31 -8 -22 -22 8 -18 -6 8 -27 12 -10 18 -22 14 -27 -5 -4 -20 5 -33
20 -13 15 -24 24 -24 18 0 -5 -3 -16 -6 -25 -4 -11 -1 -16 10 -16 17 0 19 -13
7 -44 -5 -13 -10 -16 -14 -9 -4 7 -3 14 2 18 6 3 3 13 -7 23 -15 16 -18 16
-28 3 -13 -17 -7 -44 7 -35 5 3 9 1 9 -4 0 -15 -28 -23 -36 -10 -4 7 -10 4
-17 -7 -6 -12 -6 -20 2 -24 7 -5 4 -13 -9 -24 -11 -9 -20 -24 -20 -32 0 -8 -5
-15 -10 -15 -6 0 -8 -11 -4 -25 5 -18 3 -25 -7 -23 -8 2 -21 -27 -37 -87 -20
-74 -25 -115 -26 -230 -1 -212 42 -369 149 -539 l54 -86 -97 -98 c-212 -212
-427 -340 -690 -409 -79 -20 -129 -26 -269 -30 -95 -3 -173 -3 -173 1 0 4 13
32 29 64 71 141 131 347 146 502 5 47 4 61 -4 50 -9 -13 -11 -12 -11 5 -1 18
-2 18 -10 -2 -5 -13 -12 -23 -16 -23 -3 0 -4 7 0 15 3 8 1 15 -4 15 -5 0 -11
8 -13 18 -3 9 -5 2 -6 -15 0 -18 -6 -33 -12 -33 -6 0 -9 9 -6 20 3 11 1 20 -4
20 -5 0 -9 -14 -9 -31 0 -26 3 -30 19 -26 15 3 18 1 14 -11 -4 -10 -2 -13 5
-8 7 4 12 2 12 -3 0 -14 -17 -14 -26 0 -4 8 -9 7 -15 -2 -7 -11 -9 -9 -9 5 0
11 -3 16 -7 13 -4 -4 -13 7 -21 25 -12 26 -16 29 -19 15 -3 -10 0 -23 5 -30 6
-7 13 -29 17 -49 4 -21 12 -36 17 -35 6 1 12 -3 15 -9 2 -7 -8 -11 -27 -10
-33 1 -36 6 -18 24 7 7 9 12 4 12 -11 0 -37 -27 -35 -37 4 -17 -28 -75 -35
-64 -4 6 0 19 9 28 16 16 16 17 -1 30 -21 16 -31 9 -15 -11 13 -15 -3 -27 -27
-19 -10 4 -10 8 -1 19 8 10 8 14 1 14 -6 0 -16 -9 -21 -19 -8 -14 -7 -20 4
-25 21 -8 19 -22 -7 -48 l-23 -23 -6 35 c-6 31 -7 32 -8 7 0 -16 4 -37 9 -48
9 -15 7 -23 -6 -37 -17 -16 -17 -16 -12 6 3 12 2 22 -4 22 -5 0 -9 -15 -8 -32
3 -49 2 -52 -16 -37 -12 10 -17 10 -23 0 -6 -9 -11 -8 -21 4 -10 12 -10 19 -2
27 17 17 15 28 -3 22 -8 -4 -15 -13 -15 -21 0 -12 -3 -13 -13 -4 -10 8 -17 7
-25 -1 -18 -18 -14 -27 11 -21 19 4 20 3 7 -9 -23 -20 -41 -56 -31 -62 5 -3
12 6 15 19 4 14 11 23 16 20 6 -3 10 -2 10 3 0 6 7 13 16 16 12 5 15 2 10 -10
-4 -12 -1 -14 13 -9 11 3 22 2 25 -3 5 -9 3 -10 -49 -14 -17 -2 -34 -11 -40
-22 -12 -22 -26 -23 -40 -2 -7 11 -4 19 10 30 11 9 14 16 8 16 -7 0 -20 -11
-29 -24 -13 -21 -20 -23 -40 -16 -32 12 -31 -3 1 -24 22 -15 26 -15 31 -2 5
14 9 13 30 -2 13 -9 24 -26 24 -36 0 -19 0 -19 -21 0 -20 18 -21 18 -35 -1 -9
-12 -11 -21 -4 -23 5 -2 10 -13 10 -25 -1 -21 -1 -21 -14 -4 -10 13 -16 15
-21 7 -6 -9 -10 -9 -16 1 -13 21 -11 29 6 23 21 -8 31 24 13 42 -12 12 -16 10
-29 -20 -16 -35 -9 -83 11 -71 5 3 10 1 10 -5 0 -7 -6 -10 -14 -7 -8 3 -25 -3
-37 -14 -13 -11 -28 -18 -35 -15 -7 3 -15 -7 -19 -22 -4 -18 -9 -22 -14 -13
-5 8 -17 11 -30 6 -26 -8 -26 -15 -1 -43 24 -25 29 -62 6 -43 -8 6 -20 10 -27
9 -7 -2 -16 8 -20 22 -4 14 -7 20 -8 13 -1 -6 -4 -19 -7 -28 -4 -10 -2 -15 7
-13 10 2 13 -6 12 -26 -1 -17 2 -35 8 -42 7 -8 7 -14 -1 -19 -5 -3 -10 1 -10
10 0 9 -5 13 -10 10 -7 -4 -9 3 -5 22 3 15 2 22 -1 15 -3 -6 -10 -9 -16 -6 -5
3 -8 0 -7 -7 1 -8 -3 -25 -9 -39 -11 -23 -11 -22 -6 11 4 25 1 39 -10 48 -13
11 -16 11 -16 -2 0 -8 5 -17 11 -19 6 -2 7 -11 3 -22 -7 -18 -8 -17 -17 5
l-10 24 -7 -25 c-6 -18 -8 -20 -9 -7 -1 16 -3 17 -16 3 -8 -8 -15 -19 -15 -25
0 -6 7 -8 15 -5 20 8 18 -13 -5 -56 -16 -31 -19 -33 -26 -16 -5 13 -2 23 10
32 17 12 16 13 -3 24 -18 9 -19 14 -10 31 8 16 8 24 -2 33 -9 8 -11 7 -6 -6 4
-10 -1 -25 -11 -34 -12 -13 -13 -19 -4 -22 7 -2 11 -21 11 -50 -1 -26 -4 -36
-6 -22 -5 29 -31 90 -39 90 -3 0 -3 -9 1 -19 3 -11 1 -22 -5 -26 -5 -3 -10
-13 -10 -21 0 -13 2 -13 16 1 20 19 32 12 15 -9 -7 -8 -9 -21 -5 -27 4 -8 3
-9 -4 -5 -7 4 -12 1 -12 -8 0 -9 5 -16 12 -16 21 0 0 -12 -26 -14 -16 -2 -26
2 -26 10 0 7 -5 16 -10 19 -7 4 -8 -3 -4 -22 9 -37 11 -38 29 -23 12 10 15 10
15 -4 0 -27 -30 -31 -53 -7 -12 11 -16 21 -9 21 7 0 12 5 12 12 0 8 -6 6 -17
-4 -13 -14 -14 -20 -3 -32 7 -9 10 -16 6 -17 -25 -4 -54 -2 -66 5 -12 7 -13 6
-2 -5 6 -7 13 -22 13 -33 1 -19 2 -19 6 -3 5 18 6 17 20 -2 14 -21 33 -20 33
0 0 6 -4 7 -10 4 -5 -3 -10 -2 -10 3 0 6 7 12 15 16 10 3 15 -1 15 -13 0 -11
6 -21 13 -24 7 -2 8 -8 3 -13 -5 -5 -11 -4 -13 4 -3 6 -9 10 -13 7 -5 -3 -6
-13 -3 -23 6 -15 4 -15 -15 1 -11 11 -26 16 -32 12 -9 -6 -9 -10 1 -17 11 -8
10 -9 -3 -4 -13 4 -18 0 -18 -14 0 -22 -37 -37 -54 -20 -6 6 -6 11 -1 10 21
-5 45 0 45 9 0 13 -39 21 -46 9 -3 -5 -12 -7 -20 -4 -20 8 -17 -14 4 -31 13
-10 13 -13 2 -11 -8 2 -21 12 -28 23 -12 19 -13 19 -7 -5 4 -14 8 -33 9 -42 1
-10 5 -21 9 -24 12 -12 8 -26 -5 -18 -8 5 -7 0 2 -11 8 -10 10 -16 3 -12 -6 4
-17 1 -25 -6 -7 -8 -19 -12 -26 -9 -8 2 -12 -3 -10 -13 2 -10 -3 -20 -10 -22
-8 -3 -10 1 -6 14 6 14 2 13 -16 -5 -19 -20 -21 -27 -11 -48 15 -34 14 -39 -5
-23 -15 12 -16 11 -10 -9 8 -24 1 -29 -17 -9 -13 13 -14 29 -2 70 6 22 3 32
-13 48 -12 10 -24 19 -27 19 -10 0 -5 -19 10 -34 13 -13 13 -22 1 -75 -10 -44
-11 -61 -3 -64 8 -2 8 -10 -1 -28 -7 -13 -11 -17 -8 -7 3 9 -4 24 -15 34 -10
9 -19 25 -19 36 0 10 -4 18 -10 18 -5 0 -10 -9 -10 -20 0 -11 -7 -20 -15 -20
-8 0 -15 -6 -15 -14 0 -8 10 -13 25 -13 14 0 25 4 25 9 0 5 5 6 10 3 16 -10
12 -35 -4 -29 -16 6 -41 -31 -28 -40 5 -3 43 8 84 24 169 66 347 104 533 116
57 4 239 -1 420 -11 263 -14 347 -15 465 -6 415 33 764 169 1115 434 82 63
307 281 386 375 l44 53 80 -12 c91 -13 227 -7 330 15 392 84 695 390 777 786
28 135 21 337 -16 465 -53 181 -130 310 -260 441 -130 130 -260 206 -441 260
-76 22 -114 27 -240 30 -82 2 -170 -1 -195 -6z m-230 -123 c0 -5 -4 -5 -10 -2
-5 3 -10 14 -10 23 0 15 2 15 10 2 5 -8 10 -19 10 -23z m-210 -209 c0 -3 -9
-6 -20 -5 -11 1 -20 5 -20 9 0 3 9 6 20 5 11 -1 20 -5 20 -9z m-130 -93 c-7
-8 -17 -12 -23 -8 -6 4 -3 11 8 19 23 17 32 10 15 -11z m-105 -136 c-10 -15
-25 -10 -19 6 4 8 10 12 15 9 5 -3 7 -10 4 -15z m-32 -25 c11 -11 -3 -24 -18
-18 -8 4 -12 10 -9 15 6 11 18 12 27 3z m965 -48 c187 -50 309 -241 271 -424
-24 -120 -98 -215 -207 -269 -51 -25 -68 -28 -157 -28 -89 0 -106 3 -156 28
-67 33 -152 119 -181 183 -58 133 -32 294 68 404 90 99 231 140 362 106z
m-1948 -926 c0 -5 -4 -10 -10 -10 -5 0 -10 5 -10 10 0 6 5 10 10 10 6 0 10 -4
10 -10z m-40 -66 c0 -8 -4 -12 -10 -9 -5 3 -10 10 -10 16 0 5 5 9 10 9 6 0 10
-7 10 -16z m-20 -25 c0 -6 -4 -7 -10 -4 -5 3 -10 11 -10 16 0 6 5 7 10 4 6 -3
10 -11 10 -16z m-80 -66 c0 -20 -3 -24 -11 -16 -7 7 -9 19 -6 27 10 24 17 19
17 -11z m-92 -79 c0 -17 -4 -22 -11 -15 -5 5 -7 17 -4 25 9 23 15 19 15 -10z
m-28 -50 c0 -8 -4 -12 -10 -9 -5 3 -10 10 -10 16 0 5 5 9 10 9 6 0 10 -7 10
-16z m-20 -38 c0 -3 -4 -8 -10 -11 -5 -3 -10 -1 -10 4 0 6 5 11 10 11 6 0 10
-2 10 -4z m-120 -66 c0 -5 -5 -10 -11 -10 -5 0 -7 5 -4 10 3 6 8 10 11 10 2 0
4 -4 4 -10z m-50 -91 c0 -6 -4 -7 -10 -4 -5 3 -10 11 -10 16 0 6 5 7 10 4 6
-3 10 -11 10 -16z m-72 -84 c-3 -3 -9 2 -12 12 -6 14 -5 15 5 6 7 -7 10 -15 7
-18z m-48 -15 c0 -5 -4 -10 -10 -10 -5 0 -10 5 -10 10 0 6 5 10 10 10 6 0 10
-4 10 -10z m-79 -27 c13 -16 12 -17 -3 -4 -10 7 -18 15 -18 17 0 8 8 3 21 -13z
m26 -25 c-3 -8 -6 -5 -6 6 -1 11 2 17 5 13 3 -3 4 -12 1 -19z m-156 -139 c11
-11 18 -23 15 -27 -6 -5 -46 32 -46 43 0 10 10 5 31 -16z m-106 -139 c3 -5 -3
-10 -14 -10 -10 0 -22 -6 -24 -12 -4 -8 -6 -7 -6 4 -1 23 32 37 44 18z m-120
-141 c-3 -4 -12 -6 -20 -3 -8 4 -13 10 -10 15 3 4 12 6 20 3 8 -4 13 -10 10
-15z m-95 -39 c0 -5 -5 -10 -11 -10 -5 0 -7 5 -4 10 3 6 8 10 11 10 2 0 4 -4
4 -10z m50 -10 c0 -5 -5 -10 -11 -10 -5 0 -7 5 -4 10 3 6 8 10 11 10 2 0 4 -4
4 -10z m-245 -220 c3 -5 -1 -10 -9 -10 -9 0 -16 5 -16 10 0 6 4 10 9 10 6 0
13 -4 16 -10z"/>
<path d="M10315 5399 c-4 -6 -5 -12 -2 -15 2 -3 7 2 10 11 7 17 1 20 -8 4z"/>
<path d="M9270 4416 c0 -9 5 -16 10 -16 6 0 10 4 10 9 0 6 -4 13 -10 16 -5 3
-10 -1 -10 -9z"/>
<path d="M9225 4350 c-3 -5 -1 -10 4 -10 6 0 11 5 11 10 0 6 -2 10 -4 10 -3 0
-8 -4 -11 -10z"/>
<path d="M9206 4304 c-9 -23 -2 -28 13 -10 7 8 8 17 3 20 -6 3 -13 -1 -16 -10z"/>
<path d="M9155 4260 c5 -15 4 -20 -4 -16 -6 4 -11 2 -11 -3 0 -15 15 -14 28 2
7 8 6 16 -5 26 -13 12 -14 11 -8 -9z"/>
<path d="M9070 4209 c0 -5 5 -7 10 -4 6 3 10 8 10 11 0 2 -4 4 -10 4 -5 0 -10
-5 -10 -11z"/>
<path d="M9089 4189 l-24 -20 28 17 c15 9 27 18 27 20 0 8 -8 4 -31 -17z"/>
<path d="M9017 4123 c-11 -11 -8 -31 6 -36 10 -4 13 2 9 19 -5 26 -6 27 -15
17z"/>
<path d="M8985 4097 c-4 -10 -5 -21 -1 -24 10 -10 18 4 13 24 -4 17 -4 17 -12
0z"/>
<path d="M8854 3955 c-3 -14 -4 -29 0 -32 3 -4 6 3 6 15 0 24 15 30 24 10 3
-7 5 -4 3 6 -3 30 -25 31 -33 1z"/>
<path d="M8831 3934 c0 -11 3 -14 6 -6 3 7 2 16 -1 19 -3 4 -6 -2 -5 -13z"/>
<path d="M8730 3871 c0 -5 5 -13 10 -16 6 -3 10 -2 10 4 0 5 -4 13 -10 16 -5
3 -10 2 -10 -4z"/>
<path d="M8750 3809 c0 -5 5 -7 10 -4 6 3 10 8 10 11 0 2 -4 4 -10 4 -5 0 -10
-5 -10 -11z"/>
<path d="M8700 3789 c0 -5 5 -7 10 -4 6 3 10 8 10 11 0 2 -4 4 -10 4 -5 0 -10
-5 -10 -11z"/>
<path d="M8670 3752 c0 -11 6 -24 13 -30 10 -8 13 -6 13 7 0 10 -6 23 -13 30
-10 9 -13 8 -13 -7z"/>
<path d="M8400 3553 c0 -5 4 -14 9 -21 7 -11 9 -11 14 1 3 8 3 18 0 21 -9 8
-23 7 -23 -1z"/>
<path d="M8422 3514 c-14 -16 -10 -44 7 -44 5 0 12 7 15 16 3 8 2 12 -4 9 -14
-9 -12 9 2 23 7 7 8 12 3 12 -6 -1 -16 -8 -23 -16z"/>
<path d="M8317 3472 c-16 -18 -14 -32 6 -32 5 0 7 6 4 14 -3 8 -1 17 6 19 7 2
9 7 6 11 -3 3 -13 -2 -22 -12z"/>
<path d="M8352 3461 c4 -13 18 -16 19 -4 0 4 -5 9 -11 12 -7 2 -11 -2 -8 -8z"/>
<path d="M8262 3356 c7 -8 15 -12 17 -11 5 6 -10 25 -20 25 -5 0 -4 -6 3 -14z"/>
<path d="M8062 3140 c0 -14 2 -19 5 -12 2 6 2 18 0 25 -3 6 -5 1 -5 -13z"/>
<path d="M7896 3063 c-11 -11 -6 -23 9 -23 8 0 15 4 15 9 0 13 -16 22 -24 14z"/>
<path d="M7930 2989 c0 -5 5 -7 10 -4 6 3 10 8 10 11 0 2 -4 4 -10 4 -5 0 -10
-5 -10 -11z"/>
<path d="M7800 2921 c0 -5 5 -13 10 -16 6 -3 10 -2 10 4 0 5 -4 13 -10 16 -5
3 -10 2 -10 -4z"/>
<path d="M7725 2880 c-3 -5 -1 -10 4 -10 6 0 11 5 11 10 0 6 -2 10 -4 10 -3 0
-8 -4 -11 -10z"/>
<path d="M7813 2866 c3 -7 0 -19 -6 -25 -8 -8 -8 -11 1 -11 14 0 34 35 25 44
-12 11 -25 6 -20 -8z"/>
<path d="M7730 2823 c0 -4 5 -15 10 -23 8 -13 10 -13 10 2 0 9 -4 20 -10 23
-5 3 -10 3 -10 -2z"/>
<path d="M7656 2781 c-3 -5 1 -11 9 -15 8 -3 15 -1 15 4 0 13 -18 22 -24 11z"/>
<path d="M7666 2734 c-3 -9 -2 -23 4 -32 7 -14 9 -10 10 16 0 35 -5 41 -14 16z"/>
<path d="M7596 2705 c-3 -8 -1 -15 4 -15 6 0 10 7 10 15 0 8 -2 15 -4 15 -2 0
-6 -7 -10 -15z"/>
<path d="M7570 2671 c0 -5 5 -13 10 -16 6 -3 10 -2 10 4 0 5 -4 13 -10 16 -5
3 -10 2 -10 -4z"/>
<path d="M7570 2631 c0 -6 4 -13 10 -16 6 -4 5 -13 -3 -26 -12 -19 -12 -19
-19 3 -6 23 -6 23 -7 1 -1 -12 -5 -25 -11 -28 -5 -3 -10 -10 -10 -14 0 -5 19
0 43 11 28 13 43 26 43 39 0 10 -6 19 -13 19 -7 0 -13 5 -13 10 0 6 -4 10 -10
10 -5 0 -10 -4 -10 -9z"/>
<path d="M7510 2570 c0 -20 -4 -28 -13 -24 -14 5 -44 -22 -35 -32 11 -10 58
20 58 37 0 10 5 21 10 24 12 7 4 25 -11 25 -5 0 -9 -13 -9 -30z"/>
<path d="M7420 2571 c0 -6 4 -13 10 -16 6 -3 7 1 4 9 -7 18 -14 21 -14 7z"/>
<path d="M7422 2517 c-6 -7 -7 -18 -3 -25 6 -10 11 -10 21 3 9 11 9 15 1 15
-7 0 -9 5 -6 10 9 14 -1 12 -13 -3z"/>
<path d="M7360 2475 c-15 -8 -19 -14 -10 -14 18 -1 46 16 40 23 -3 2 -16 -2
-30 -9z"/>
<path d="M7266 2422 c-3 -6 -1 -14 5 -17 15 -10 25 3 12 16 -7 7 -13 7 -17 1z"/>
<path d="M7240 2391 c0 -5 5 -13 10 -16 6 -3 10 -2 10 4 0 5 -4 13 -10 16 -5
3 -10 2 -10 -4z"/>
<path d="M6885 2010 c-3 -5 1 -10 9 -10 9 0 16 5 16 10 0 6 -4 10 -9 10 -6 0
-13 -4 -16 -10z"/>
<path d="M6858 1973 c-10 -2 -18 -9 -18 -14 0 -14 26 -11 40 6 13 15 9 16 -22
8z"/>
<path d="M6866 1936 c-21 -15 -30 -17 -33 -8 -6 15 -23 16 -23 1 0 -17 24 -36
40 -31 20 6 52 41 48 51 -2 5 -16 -1 -32 -13z"/>
<path d="M6880 1895 c0 -8 5 -15 10 -15 6 0 10 7 10 15 0 8 -4 15 -10 15 -5 0
-10 -7 -10 -15z"/>
<path d="M6640 1791 c0 -5 5 -13 10 -16 6 -3 10 -2 10 4 0 5 -4 13 -10 16 -5
3 -10 2 -10 -4z"/>
<path d="M6646 1734 c-9 -23 -4 -24 17 -2 13 14 14 18 3 18 -8 0 -17 -7 -20
-16z"/>
<path d="M6605 1710 c-3 -5 -1 -10 4 -10 6 0 11 5 11 10 0 6 -2 10 -4 10 -3 0
-8 -4 -11 -10z"/>
<path d="M6546 1664 c-9 -24 -2 -26 12 -4 7 11 8 20 3 20 -5 0 -12 -7 -15 -16z"/>
<path d="M6561 1634 c0 -11 3 -14 6 -6 3 7 2 16 -1 19 -3 4 -6 -2 -5 -13z"/>
<path d="M6580 1600 c-8 -5 -12 -11 -9 -14 2 -3 11 -1 19 4 8 5 12 11 9 14 -2
3 -11 1 -19 -4z"/>
<path d="M6353 1453 c-21 -8 -15 -22 7 -16 11 3 20 9 20 14 0 10 -8 10 -27 2z"/>
<path d="M6191 1343 c-8 -9 -10 -18 -4 -24 5 -5 13 -1 21 11 14 23 2 33 -17
13z"/>
<path d="M6155 1234 c-11 -29 -20 -42 -25 -34 -6 9 -9 9 -15 0 -4 -6 -3 -16 3
-22 7 -7 16 -2 27 16 10 14 21 24 25 21 11 -7 23 46 12 57 -5 5 -16 -10 -27
-38z"/>
<path d="M6005 1150 c-3 -5 -1 -10 4 -10 6 0 11 5 11 10 0 6 -2 10 -4 10 -3 0
-8 -4 -11 -10z"/>
<path d="M6015 1117 c-13 -15 -18 -64 -5 -51 9 9 25 64 19 64 -2 -1 -9 -6 -14
-13z"/>
<path d="M5900 1059 c0 -5 5 -7 10 -4 6 3 10 8 10 11 0 2 -4 4 -10 4 -5 0 -10
-5 -10 -11z"/>
<path d="M5865 969 c-4 -6 -5 -12 -2 -15 2 -3 7 2 10 11 7 17 1 20 -8 4z"/>
<path d="M5785 930 c-3 -5 -1 -10 4 -10 6 0 11 5 11 10 0 6 -2 10 -4 10 -3 0
-8 -4 -11 -10z"/>
<path d="M5625 750 c-3 -5 -1 -10 4 -10 6 0 11 5 11 10 0 6 -2 10 -4 10 -3 0
-8 -4 -11 -10z"/>
<path d="M5450 621 c0 -5 5 -13 10 -16 6 -3 10 -2 10 4 0 5 -4 13 -10 16 -5 3
-10 2 -10 -4z"/>
<path d="M5540 620 c0 -5 5 -10 10 -10 6 0 10 5 10 10 0 6 -4 10 -10 10 -5 0
-10 -4 -10 -10z"/>
<path d="M5356 445 c-3 -8 -1 -15 4 -15 6 0 10 7 10 15 0 8 -2 15 -4 15 -2 0
-6 -7 -10 -15z"/>
<path d="M5292 441 c4 -13 18 -16 19 -4 0 4 -5 9 -11 12 -7 2 -11 -2 -8 -8z"/>
<path d="M5280 390 c0 -6 7 -10 15 -10 8 0 15 2 15 4 0 2 -7 6 -15 10 -8 3
-15 1 -15 -4z"/>
<path d="M5160 228 c0 -6 3 -8 7 -5 3 4 13 1 22 -6 14 -11 14 -10 2 6 -15 20
-31 22 -31 5z"/>
</g>
</svg>
