<svg xmlns="http://www.w3.org/2000/svg" xmlns:xlink="http://www.w3.org/1999/xlink" viewBox="0 0 2002.54 1920.41"><defs><style>.cls-1{fill:url(#Gradient_bez_nazwy_7);}</style><linearGradient id="Gradient_bez_nazwy_7" y1="960.21" x2="2002.54" y2="960.21" gradientUnits="userSpaceOnUse"><stop offset="0" stop-color="#80cb64"/><stop offset="1" stop-color="#6e69ac"/></linearGradient></defs><g id="Warstwa_2" data-name="Warstwa 2"><g id="Warstwa_1-2" data-name="Warstwa 1"><path class="cls-1" d="M1521,1919.86c-29.16.26-56-8-81.39-21.32q-198.6-104.1-397-208.51c-27.95-14.78-54.08-15-82-.16-128,68-256.45,135.2-384.58,203-40.88,21.62-83.54,34.88-129.64,23.29-89.91-22.61-139.06-103.1-122.6-194.23,21-116.24,40.1-232.81,60.16-349.22,5.14-29.84,10.66-59.61,16.22-89.37,5.91-31.56-3.94-57.38-26.79-79.46Q220.08,1055.69,67.22,907.17C38.1,879,12.87,848.21,4,807.58-15.28,719.2,36.72,635,125.4,615.27c48.16-10.72,97.65-15.5,146.59-22.67,72.95-10.68,146-21,218.9-31.7,34.47-5.07,68.78-11.14,103.27-16,27.06-3.83,45.13-19,56.84-42.6q87.39-175.65,174.52-351.4c12.59-25.29,24.72-50.95,39.34-75.06,61.25-101.06,213-101.63,272.93,1.45,28.86,49.66,52.76,102.23,78.23,153.83q66.38,134.46,131.73,269.44c14,29,36.47,42.54,67.44,46.65,76.59,10.15,153,21.24,229.55,32,59.52,8.39,119.14,16.14,178.48,25.63,28.25,4.52,57.55,8.62,83.63,19.49,92,38.32,124.41,156,67.32,238.47a228.6,228.6,0,0,1-28.36,33.5c-103.24,100.56-206,201.57-310.7,300.65-30.43,28.81-38.9,59.87-31.41,99.45,15.84,83.81,30.22,167.89,44.89,251.91,10.17,58.18,19.62,116.48,29.76,174.67,16.11,92.48-36.79,173.4-127.31,193.69C1541.28,1918.85,1531,1918.85,1521,1919.86ZM140.07,766.61c11.61,16.79,22,33.81,34.44,49.16,10.14,12.48,22.7,23,34.29,34.29Q347.34,985.06,486,1120c41.23,40,63.52,87.32,55.42,145.59-6.26,45-14.2,89.72-21.75,134.51C509,1463.28,498,1526.44,487.18,1589.64c-8.24,48.28-16.9,96.49-24.3,144.9-2.16,14.15-5.43,31.39,7.88,41.24,13.74,10.18,27.79-.81,41.07-6.37.92-.38,1.7-1.09,2.6-1.56Q711.58,1664.2,908.7,1560.49c62-32.78,123.24-32.85,185.29,0,122.75,65,246,129.13,368.68,194.17,22.28,11.8,45.06,19.36,74.19,19.32,0-19,2-38.12-.42-56.7-4.44-34.51-11.41-68.7-17.34-103q-27.57-159.69-55.17-319.37c-12.32-71,6-131.16,58.71-181.79,105-100.92,208.86-203,313.12-304.7,4.31-4.21,8.86-8.61,11.71-13.8,18.23-33.07,14.76-39.12-20.12-47.73-23.92-5.9-48.75-8.26-73.24-11.74-121.51-17.28-243-34.94-364.58-51.41C1313.31,673.39,1259,635,1225.27,565.47q-91.61-188.76-185.56-376.36c-9-18.07-23.35-33.5-38.24-54.37-14.83,20.08-28.57,35-38.05,52.28-18.93,34.51-35.63,70.24-53.08,105.55q-70.82,143.3-141.45,286.67c-27.3,55.48-69.46,90.74-132.18,98.93-27,3.53-54,7.64-81,11.68q-162.55,24.31-325.06,48.86C201,743.25,170,743.85,140.07,766.61Z"/></g></g></svg>